M48
; DRILL file KiCad 10.0.4 date 2026-06-28T14:15:12
; FORMAT={-:-/ absolute / metric / decimal}
; #@! TF.CreationDate,2026-06-28T14:15:12+03:00
; #@! TF.GenerationSoftware,Kicad,Pcbnew,10.0.4
; #@! TF.FileFunction,Plated,1,2,PTH
FMAT,2
METRIC
; #@! TA.AperFunction,Plated,PTH,ViaDrill
T1C0.300
; #@! TA.AperFunction,Plated,PTH,ComponentDrill
T2C0.800
; #@! TA.AperFunction,Plated,PTH,ComponentDrill
T3C0.900
; #@! TA.AperFunction,Plated,PTH,ComponentDrill
T4C1.000
; #@! TA.AperFunction,Plated,PTH,ComponentDrill
T5C1.200
%
G90
G05
T1
X144.25Y-38.25
X146.0Y-40.55
T2
X144.94Y-122.25
X152.56Y-122.25
X189.75Y-83.5
X189.75Y-86.04
X189.75Y-88.58
X189.75Y-91.12
T3
X119.52Y-122.5
X119.52Y-125.04
T4
X117.36Y-101.01
X119.9Y-101.01
X122.44Y-101.01
X124.98Y-101.01
X126.5Y-52.75
X126.95Y-111.0
X127.52Y-101.01
X129.04Y-52.75
X130.06Y-101.01
X131.58Y-52.75
X132.6Y-101.01
X134.12Y-52.75
X134.55Y-111.0
X135.14Y-101.01
X136.66Y-52.75
X137.5Y-38.0
X137.5Y-40.54
X137.68Y-101.01
X139.2Y-52.75
X140.22Y-101.01
X141.74Y-52.75
X144.28Y-52.75
X144.28Y-101.01
X146.82Y-101.01
X149.36Y-52.75
X149.36Y-101.01
X151.9Y-52.75
X151.9Y-101.01
X154.44Y-52.75
X154.44Y-101.01
X156.98Y-52.75
X156.98Y-101.01
X159.52Y-52.75
X159.52Y-101.01
X162.06Y-52.75
X162.06Y-101.01
X190.0Y-65.98
X190.0Y-68.52
X190.0Y-71.06
T5
X190.0Y-63.44
M30
