%TF.GenerationSoftware,KiCad,Pcbnew,10.0.4*%
%TF.CreationDate,2026-06-28T14:15:30+03:00*%
%TF.ProjectId,fire-detection-system,66697265-2d64-4657-9465-6374696f6e2d,rev?*%
%TF.SameCoordinates,Original*%
%TF.FileFunction,Copper,L2,Bot*%
%TF.FilePolarity,Positive*%
%FSLAX46Y46*%
G04 Gerber Fmt 4.6, Leading zero omitted, Abs format (unit mm)*
G04 Created by KiCad (PCBNEW 10.0.4) date 2026-06-28 14:15:30*
%MOMM*%
%LPD*%
G01*
G04 APERTURE LIST*
%TA.AperFunction,ComponentPad*%
%ADD10R,2.000000X2.000000*%
%TD*%
%TA.AperFunction,ComponentPad*%
%ADD11C,2.000000*%
%TD*%
%TA.AperFunction,ComponentPad*%
%ADD12C,1.600000*%
%TD*%
%TA.AperFunction,ComponentPad*%
%ADD13R,1.800000X1.800000*%
%TD*%
%TA.AperFunction,ComponentPad*%
%ADD14C,1.800000*%
%TD*%
%TA.AperFunction,ComponentPad*%
%ADD15R,1.500000X1.500000*%
%TD*%
%TA.AperFunction,ComponentPad*%
%ADD16C,1.500000*%
%TD*%
%TA.AperFunction,ComponentPad*%
%ADD17R,1.700000X1.700000*%
%TD*%
%TA.AperFunction,ComponentPad*%
%ADD18C,1.700000*%
%TD*%
%TA.AperFunction,ComponentPad*%
%ADD19R,2.200000X2.200000*%
%TD*%
%TA.AperFunction,ComponentPad*%
%ADD20R,1.600000X1.600000*%
%TD*%
%TA.AperFunction,ComponentPad*%
%ADD21O,1.600000X1.600000*%
%TD*%
%TA.AperFunction,ViaPad*%
%ADD22C,0.600000*%
%TD*%
%TA.AperFunction,Conductor*%
%ADD23C,0.200000*%
%TD*%
%TA.AperFunction,Conductor*%
%ADD24C,0.500000*%
%TD*%
G04 APERTURE END LIST*
D10*
%TO.P,BZ1,1,+_1*%
%TO.N,BO*%
X134550000Y-111000000D03*
D11*
%TO.P,BZ1,2,-_2*%
%TO.N,GND*%
X126950000Y-111000000D03*
%TD*%
D12*
%TO.P,R1,1*%
%TO.N,Net-(D1-A)*%
X144940000Y-122250000D03*
%TO.P,R1,2*%
%TO.N,LED*%
X152560000Y-122250000D03*
%TD*%
D13*
%TO.P,D1,1,K_1*%
%TO.N,GND*%
X119520000Y-122500000D03*
D14*
%TO.P,D1,2,A_2*%
%TO.N,Net-(D1-A)*%
X119520000Y-125040000D03*
%TD*%
D15*
%TO.P,U1,1,VDD_1*%
%TO.N,3.3V*%
X189750000Y-83500000D03*
D16*
%TO.P,U1,2,DATA_2*%
%TO.N,DATA-STH11*%
X189750000Y-86040000D03*
%TO.P,U1,3,NC_3*%
%TO.N,unconnected-(U1-NC-Pad3)*%
X189750000Y-88580000D03*
%TO.P,U1,4,GND_4*%
%TO.N,GND*%
X189750000Y-91120000D03*
%TD*%
D17*
%TO.P,BT1,1,+_1*%
%TO.N,Net-(BT1-+)*%
X137500000Y-38000000D03*
D18*
%TO.P,BT1,2,-_2*%
%TO.N,GND*%
X137500000Y-40540000D03*
%TD*%
D19*
%TO.P,U2,1,VCC_1*%
%TO.N,5V*%
X190000000Y-63440000D03*
D18*
%TO.P,U2,2,GND_2*%
%TO.N,GND*%
X190000000Y-65980000D03*
%TO.P,U2,3,DO_3*%
%TO.N,DO-MQ2*%
X190000000Y-68520000D03*
%TO.P,U2,4,AO_4*%
%TO.N,A0-MQ2*%
X190000000Y-71060000D03*
%TD*%
D20*
%TO.P,A1,1,NC_1*%
%TO.N,unconnected-(A1-NC-Pad1)*%
X126500000Y-52750000D03*
D21*
%TO.P,A1,2,IOREF_2*%
%TO.N,unconnected-(A1-IOREF-Pad2)*%
X129040000Y-52750000D03*
%TO.P,A1,3,~{RESET}_3*%
%TO.N,unconnected-(A1-~{RESET}-Pad3)*%
X131580000Y-52750000D03*
%TO.P,A1,4,3V3_4*%
%TO.N,3.3V*%
X134120000Y-52750000D03*
%TO.P,A1,5,+5V_5*%
%TO.N,5V*%
X136660000Y-52750000D03*
%TO.P,A1,6,GND_6*%
%TO.N,GND*%
X139200000Y-52750000D03*
%TO.P,A1,7,GND_7*%
X141740000Y-52750000D03*
%TO.P,A1,8,VIN_8*%
%TO.N,VCC*%
X144280000Y-52750000D03*
%TO.P,A1,9,A0_9*%
%TO.N,A0-MQ2*%
X149360000Y-52750000D03*
%TO.P,A1,10,A1_10*%
%TO.N,unconnected-(A1-A1-Pad10)*%
X151900000Y-52750000D03*
%TO.P,A1,11,A2_11*%
%TO.N,unconnected-(A1-A2-Pad11)*%
X154440000Y-52750000D03*
%TO.P,A1,12,A3_12*%
%TO.N,unconnected-(A1-A3-Pad12)*%
X156980000Y-52750000D03*
%TO.P,A1,13,SDA/A4_13*%
%TO.N,unconnected-(A1-SDA{slash}A4-Pad13)*%
X159520000Y-52750000D03*
%TO.P,A1,14,SCL/A5_14*%
%TO.N,unconnected-(A1-SCL{slash}A5-Pad14)*%
X162060000Y-52750000D03*
%TO.P,A1,15,D0/RX_15*%
%TO.N,unconnected-(A1-D0{slash}RX-Pad15)*%
X162060000Y-101010000D03*
%TO.P,A1,16,D1/TX_16*%
%TO.N,unconnected-(A1-D1{slash}TX-Pad16)*%
X159520000Y-101010000D03*
%TO.P,A1,17,D2_17*%
%TO.N,DO-MQ2*%
X156980000Y-101010000D03*
%TO.P,A1,18,D3_18*%
%TO.N,unconnected-(A1-D3-Pad18)*%
X154440000Y-101010000D03*
%TO.P,A1,19,D4_19*%
%TO.N,DATA-STH11*%
X151900000Y-101010000D03*
%TO.P,A1,20,D5_20*%
%TO.N,unconnected-(A1-D5-Pad20)*%
X149360000Y-101010000D03*
%TO.P,A1,21,D6_21*%
%TO.N,unconnected-(A1-D6-Pad21)*%
X146820000Y-101010000D03*
%TO.P,A1,22,D7_22*%
%TO.N,unconnected-(A1-D7-Pad22)*%
X144280000Y-101010000D03*
%TO.P,A1,23,D8_23*%
%TO.N,unconnected-(A1-D8-Pad23)*%
X140220000Y-101010000D03*
%TO.P,A1,24,D9_24*%
%TO.N,unconnected-(A1-D9-Pad24)*%
X137680000Y-101010000D03*
%TO.P,A1,25,D10_25*%
%TO.N,unconnected-(A1-D10-Pad25)*%
X135140000Y-101010000D03*
%TO.P,A1,26,D11_26*%
%TO.N,LED*%
X132600000Y-101010000D03*
%TO.P,A1,27,D12_27*%
%TO.N,BO*%
X130060000Y-101010000D03*
%TO.P,A1,28,D13_28*%
%TO.N,unconnected-(A1-D13-Pad28)*%
X127520000Y-101010000D03*
%TO.P,A1,29,GND_29*%
%TO.N,GND*%
X124980000Y-101010000D03*
%TO.P,A1,30,AREF_30*%
%TO.N,unconnected-(A1-AREF-Pad30)*%
X122440000Y-101010000D03*
%TO.P,A1,31,SDA/A4_31*%
%TO.N,unconnected-(A1-SDA{slash}A4-Pad31)*%
X119900000Y-101010000D03*
%TO.P,A1,32,SCL/A5_32*%
%TO.N,unconnected-(A1-SCL{slash}A5-Pad32)*%
X117360000Y-101010000D03*
%TD*%
D22*
%TO.N,Net-(BT1-+)*%
X144250000Y-38250000D03*
%TO.N,VCC*%
X146000000Y-40550000D03*
%TD*%
%TO.N,BO*%
D23*
X134550000Y-111000000D02*
X134550000Y-105500000D01*
X134550000Y-105500000D02*
X130060000Y-101010000D01*
%TO.N,Net-(D1-A)*%
X142150000Y-125040000D02*
X144940000Y-122250000D01*
X119520000Y-125040000D02*
X142150000Y-125040000D01*
%TO.N,LED*%
X132600000Y-101010000D02*
X132600000Y-102290000D01*
X132600000Y-102290000D02*
X152560000Y-122250000D01*
%TO.N,3.3V*%
D24*
X197500000Y-57250000D02*
X167250000Y-27000000D01*
X133250000Y-27000000D02*
X125250000Y-35000000D01*
X125250000Y-43880000D02*
X134120000Y-52750000D01*
X189750000Y-83500000D02*
X197500000Y-75750000D01*
X167250000Y-27000000D02*
X133250000Y-27000000D01*
X197500000Y-75750000D02*
X197500000Y-57250000D01*
X125250000Y-35000000D02*
X125250000Y-43880000D01*
%TO.N,DATA-STH11*%
D23*
X185500000Y-103750000D02*
X185500000Y-87500000D01*
X181500000Y-107750000D02*
X185500000Y-103750000D01*
X151900000Y-101010000D02*
X151900000Y-103150000D01*
X156500000Y-107750000D02*
X181500000Y-107750000D01*
X185500000Y-87500000D02*
X186960000Y-86040000D01*
X151900000Y-103150000D02*
X156500000Y-107750000D01*
X186960000Y-86040000D02*
X189750000Y-86040000D01*
%TO.N,Net-(BT1-+)*%
X144000000Y-38000000D02*
X144250000Y-38250000D01*
D24*
X137500000Y-38000000D02*
X144000000Y-38000000D01*
%TO.N,VCC*%
X144280000Y-42270000D02*
X146000000Y-40550000D01*
X144280000Y-52750000D02*
X144280000Y-42270000D01*
%TO.N,5V*%
X195000000Y-58000000D02*
X195000000Y-61750000D01*
X136250000Y-52750000D02*
X136250000Y-51000000D01*
X134250000Y-30250000D02*
X167250000Y-30250000D01*
D23*
X136660000Y-52750000D02*
X136250000Y-52750000D01*
D24*
X129000000Y-43750000D02*
X129000000Y-35500000D01*
X195000000Y-61750000D02*
X193250000Y-63500000D01*
X129000000Y-35500000D02*
X134250000Y-30250000D01*
X193250000Y-63500000D02*
X189750000Y-63500000D01*
X167250000Y-30250000D02*
X195000000Y-58000000D01*
X136250000Y-51000000D02*
X129000000Y-43750000D01*
%TO.N,DO-MQ2*%
D23*
X182830000Y-75500000D02*
X180750000Y-77580000D01*
X156980000Y-103480000D02*
X156980000Y-101010000D01*
X180750000Y-77580000D02*
X180750000Y-102250000D01*
X158500000Y-105000000D02*
X156980000Y-103480000D01*
X180750000Y-102250000D02*
X178000000Y-105000000D01*
X182830000Y-75500000D02*
X190250000Y-75500000D01*
X192580000Y-68580000D02*
X193750000Y-69750000D01*
X190250000Y-75500000D02*
X193750000Y-72000000D01*
X189750000Y-68580000D02*
X192580000Y-68580000D01*
X178000000Y-105000000D02*
X158500000Y-105000000D01*
X193750000Y-69750000D02*
X193750000Y-72000000D01*
%TO.N,A0-MQ2*%
X149360000Y-52750000D02*
X149360000Y-49890000D01*
X179500000Y-47750000D02*
X181250000Y-49500000D01*
X181250000Y-49500000D02*
X181250000Y-62620000D01*
X149360000Y-49890000D02*
X151500000Y-47750000D01*
X181250000Y-62620000D02*
X189750000Y-71120000D01*
X151500000Y-47750000D02*
X179500000Y-47750000D01*
%TD*%
%TA.AperFunction,Conductor*%
%TO.N,GND*%
G36*
X141274075Y-52557007D02*
G01*
X141240000Y-52684174D01*
X141240000Y-52815826D01*
X141274075Y-52942993D01*
X141306988Y-53000000D01*
X139633012Y-53000000D01*
X139665925Y-52942993D01*
X139700000Y-52815826D01*
X139700000Y-52684174D01*
X139665925Y-52557007D01*
X139633012Y-52500000D01*
X141306988Y-52500000D01*
X141274075Y-52557007D01*
G37*
%TD.AperFunction*%
%TA.AperFunction,Conductor*%
G36*
X199942539Y-24770185D02*
G01*
X199988294Y-24822989D01*
X199999500Y-24874500D01*
X199999500Y-128125500D01*
X199979815Y-128192539D01*
X199927011Y-128238294D01*
X199875500Y-128249500D01*
X85874500Y-128249500D01*
X85807461Y-128229815D01*
X85761706Y-128177011D01*
X85750500Y-128125500D01*
X85750500Y-124929778D01*
X118119500Y-124929778D01*
X118119500Y-125150221D01*
X118153985Y-125367952D01*
X118222103Y-125577603D01*
X118222104Y-125577606D01*
X118322187Y-125774025D01*
X118451752Y-125952358D01*
X118451756Y-125952363D01*
X118607636Y-126108243D01*
X118607641Y-126108247D01*
X118763192Y-126221260D01*
X118785978Y-126237815D01*
X118914375Y-126303237D01*
X118982393Y-126337895D01*
X118982396Y-126337896D01*
X119087221Y-126371955D01*
X119192049Y-126406015D01*
X119409778Y-126440500D01*
X119409779Y-126440500D01*
X119630221Y-126440500D01*
X119630222Y-126440500D01*
X119847951Y-126406015D01*
X120057606Y-126337895D01*
X120254022Y-126237815D01*
X120432365Y-126108242D01*
X120588242Y-125952365D01*
X120717815Y-125774022D01*
X120751352Y-125708204D01*
X120799326Y-125657409D01*
X120861836Y-125640500D01*
X142063331Y-125640500D01*
X142063347Y-125640501D01*
X142070943Y-125640501D01*
X142229054Y-125640501D01*
X142229057Y-125640501D01*
X142381785Y-125599577D01*
X142431904Y-125570639D01*
X142518716Y-125520520D01*
X142630520Y-125408716D01*
X142630520Y-125408714D01*
X142640728Y-125398507D01*
X142640730Y-125398504D01*
X144495158Y-123544075D01*
X144556479Y-123510592D01*
X144621151Y-123513825D01*
X144635466Y-123518477D01*
X144837648Y-123550500D01*
X144837649Y-123550500D01*
X145042351Y-123550500D01*
X145042352Y-123550500D01*
X145244534Y-123518477D01*
X145439219Y-123455220D01*
X145621610Y-123362287D01*
X145714590Y-123294732D01*
X145787213Y-123241971D01*
X145787215Y-123241968D01*
X145787219Y-123241966D01*
X145931966Y-123097219D01*
X145931968Y-123097215D01*
X145931971Y-123097213D01*
X145984732Y-123024590D01*
X146052287Y-122931610D01*
X146145220Y-122749219D01*
X146208477Y-122554534D01*
X146240500Y-122352352D01*
X146240500Y-122147648D01*
X146208477Y-121945466D01*
X146145220Y-121750781D01*
X146145218Y-121750778D01*
X146145218Y-121750776D01*
X146111503Y-121684607D01*
X146052287Y-121568390D01*
X146040492Y-121552155D01*
X145931971Y-121402786D01*
X145787213Y-121258028D01*
X145621613Y-121137715D01*
X145621612Y-121137714D01*
X145621610Y-121137713D01*
X145547594Y-121100000D01*
X145439223Y-121044781D01*
X145244534Y-120981522D01*
X145069995Y-120953878D01*
X145042352Y-120949500D01*
X144837648Y-120949500D01*
X144813329Y-120953351D01*
X144635465Y-120981522D01*
X144440776Y-121044781D01*
X144258386Y-121137715D01*
X144092786Y-121258028D01*
X143948028Y-121402786D01*
X143827715Y-121568386D01*
X143734781Y-121750776D01*
X143671522Y-121945465D01*
X143639500Y-122147648D01*
X143639500Y-122352351D01*
X143671522Y-122554534D01*
X143676173Y-122568848D01*
X143678165Y-122638690D01*
X143645921Y-122694842D01*
X141937584Y-124403181D01*
X141876261Y-124436666D01*
X141849903Y-124439500D01*
X120861836Y-124439500D01*
X120794797Y-124419815D01*
X120751352Y-124371796D01*
X120717814Y-124305976D01*
X120588247Y-124127641D01*
X120588243Y-124127636D01*
X120537683Y-124077076D01*
X120504198Y-124015753D01*
X120509182Y-123946061D01*
X120551054Y-123890128D01*
X120582031Y-123873213D01*
X120662086Y-123843354D01*
X120662093Y-123843350D01*
X120777187Y-123757190D01*
X120777190Y-123757187D01*
X120863350Y-123642093D01*
X120863354Y-123642086D01*
X120913596Y-123507379D01*
X120913598Y-123507372D01*
X120919999Y-123447844D01*
X120920000Y-123447827D01*
X120920000Y-122750000D01*
X119895278Y-122750000D01*
X119939333Y-122673694D01*
X119970000Y-122559244D01*
X119970000Y-122440756D01*
X119939333Y-122326306D01*
X119895278Y-122250000D01*
X120920000Y-122250000D01*
X120920000Y-121552172D01*
X120919999Y-121552155D01*
X120913598Y-121492627D01*
X120913596Y-121492620D01*
X120863354Y-121357913D01*
X120863350Y-121357906D01*
X120777190Y-121242812D01*
X120777187Y-121242809D01*
X120662093Y-121156649D01*
X120662086Y-121156645D01*
X120527379Y-121106403D01*
X120527372Y-121106401D01*
X120467844Y-121100000D01*
X119770000Y-121100000D01*
X119770000Y-122124722D01*
X119693694Y-122080667D01*
X119579244Y-122050000D01*
X119460756Y-122050000D01*
X119346306Y-122080667D01*
X119270000Y-122124722D01*
X119270000Y-121100000D01*
X118572155Y-121100000D01*
X118512627Y-121106401D01*
X118512620Y-121106403D01*
X118377913Y-121156645D01*
X118377906Y-121156649D01*
X118262812Y-121242809D01*
X118262809Y-121242812D01*
X118176649Y-121357906D01*
X118176645Y-121357913D01*
X118126403Y-121492620D01*
X118126401Y-121492627D01*
X118120000Y-121552155D01*
X118120000Y-122250000D01*
X119144722Y-122250000D01*
X119100667Y-122326306D01*
X119070000Y-122440756D01*
X119070000Y-122559244D01*
X119100667Y-122673694D01*
X119144722Y-122750000D01*
X118120000Y-122750000D01*
X118120000Y-123447844D01*
X118126401Y-123507372D01*
X118126403Y-123507379D01*
X118176645Y-123642086D01*
X118176649Y-123642093D01*
X118262809Y-123757187D01*
X118262812Y-123757190D01*
X118377906Y-123843350D01*
X118377913Y-123843354D01*
X118457968Y-123873213D01*
X118513902Y-123915084D01*
X118538319Y-123980549D01*
X118523467Y-124048822D01*
X118502317Y-124077075D01*
X118451756Y-124127636D01*
X118451752Y-124127641D01*
X118322187Y-124305974D01*
X118222104Y-124502393D01*
X118222103Y-124502396D01*
X118153985Y-124712047D01*
X118119500Y-124929778D01*
X85750500Y-124929778D01*
X85750500Y-110881947D01*
X125450000Y-110881947D01*
X125450000Y-111118052D01*
X125486934Y-111351247D01*
X125559897Y-111575802D01*
X125667087Y-111786174D01*
X125727338Y-111869104D01*
X125727340Y-111869105D01*
X126467037Y-111129408D01*
X126484075Y-111192993D01*
X126549901Y-111307007D01*
X126642993Y-111400099D01*
X126757007Y-111465925D01*
X126820590Y-111482962D01*
X126080893Y-112222658D01*
X126163828Y-112282914D01*
X126374197Y-112390102D01*
X126598752Y-112463065D01*
X126598751Y-112463065D01*
X126831948Y-112500000D01*
X127068052Y-112500000D01*
X127301247Y-112463065D01*
X127525802Y-112390102D01*
X127736163Y-112282918D01*
X127736169Y-112282914D01*
X127819104Y-112222658D01*
X127819105Y-112222658D01*
X127079408Y-111482962D01*
X127142993Y-111465925D01*
X127257007Y-111400099D01*
X127350099Y-111307007D01*
X127415925Y-111192993D01*
X127432962Y-111129409D01*
X128172658Y-111869105D01*
X128172658Y-111869104D01*
X128232914Y-111786169D01*
X128232918Y-111786163D01*
X128340102Y-111575802D01*
X128413065Y-111351247D01*
X128450000Y-111118052D01*
X128450000Y-110881947D01*
X128413065Y-110648752D01*
X128340102Y-110424197D01*
X128232914Y-110213828D01*
X128172658Y-110130894D01*
X128172658Y-110130893D01*
X127432962Y-110870590D01*
X127415925Y-110807007D01*
X127350099Y-110692993D01*
X127257007Y-110599901D01*
X127142993Y-110534075D01*
X127079409Y-110517037D01*
X127819105Y-109777340D01*
X127819104Y-109777338D01*
X127736174Y-109717087D01*
X127525802Y-109609897D01*
X127301247Y-109536934D01*
X127301248Y-109536934D01*
X127068052Y-109500000D01*
X126831948Y-109500000D01*
X126598752Y-109536934D01*
X126374197Y-109609897D01*
X126163830Y-109717084D01*
X126080894Y-109777340D01*
X126820591Y-110517037D01*
X126757007Y-110534075D01*
X126642993Y-110599901D01*
X126549901Y-110692993D01*
X126484075Y-110807007D01*
X126467037Y-110870591D01*
X125727340Y-110130894D01*
X125667084Y-110213830D01*
X125559897Y-110424197D01*
X125486934Y-110648752D01*
X125450000Y-110881947D01*
X85750500Y-110881947D01*
X85750500Y-100907648D01*
X116059500Y-100907648D01*
X116059500Y-101112351D01*
X116091522Y-101314534D01*
X116154781Y-101509223D01*
X116247715Y-101691613D01*
X116368028Y-101857213D01*
X116512786Y-102001971D01*
X116639416Y-102093971D01*
X116678390Y-102122287D01*
X116759499Y-102163614D01*
X116860776Y-102215218D01*
X116860778Y-102215218D01*
X116860781Y-102215220D01*
X116890838Y-102224986D01*
X117055465Y-102278477D01*
X117156557Y-102294488D01*
X117257648Y-102310500D01*
X117257649Y-102310500D01*
X117462351Y-102310500D01*
X117462352Y-102310500D01*
X117664534Y-102278477D01*
X117859219Y-102215220D01*
X118041610Y-102122287D01*
X118159018Y-102036986D01*
X118207213Y-102001971D01*
X118207215Y-102001968D01*
X118207219Y-102001966D01*
X118351966Y-101857219D01*
X118351968Y-101857215D01*
X118351971Y-101857213D01*
X118472284Y-101691614D01*
X118472286Y-101691611D01*
X118472287Y-101691610D01*
X118519516Y-101598917D01*
X118567489Y-101548123D01*
X118635310Y-101531328D01*
X118701445Y-101553865D01*
X118740485Y-101598919D01*
X118787715Y-101691614D01*
X118908028Y-101857213D01*
X119052786Y-102001971D01*
X119179416Y-102093971D01*
X119218390Y-102122287D01*
X119299499Y-102163614D01*
X119400776Y-102215218D01*
X119400778Y-102215218D01*
X119400781Y-102215220D01*
X119430838Y-102224986D01*
X119595465Y-102278477D01*
X119696557Y-102294488D01*
X119797648Y-102310500D01*
X119797649Y-102310500D01*
X120002351Y-102310500D01*
X120002352Y-102310500D01*
X120204534Y-102278477D01*
X120399219Y-102215220D01*
X120581610Y-102122287D01*
X120699018Y-102036986D01*
X120747213Y-102001971D01*
X120747215Y-102001968D01*
X120747219Y-102001966D01*
X120891966Y-101857219D01*
X120891968Y-101857215D01*
X120891971Y-101857213D01*
X121012284Y-101691614D01*
X121012286Y-101691611D01*
X121012287Y-101691610D01*
X121059516Y-101598917D01*
X121107489Y-101548123D01*
X121175310Y-101531328D01*
X121241445Y-101553865D01*
X121280485Y-101598919D01*
X121327715Y-101691614D01*
X121448028Y-101857213D01*
X121592786Y-102001971D01*
X121719416Y-102093971D01*
X121758390Y-102122287D01*
X121839499Y-102163614D01*
X121940776Y-102215218D01*
X121940778Y-102215218D01*
X121940781Y-102215220D01*
X121970838Y-102224986D01*
X122135465Y-102278477D01*
X122236557Y-102294488D01*
X122337648Y-102310500D01*
X122337649Y-102310500D01*
X122542351Y-102310500D01*
X122542352Y-102310500D01*
X122744534Y-102278477D01*
X122939219Y-102215220D01*
X123121610Y-102122287D01*
X123239018Y-102036986D01*
X123287213Y-102001971D01*
X123287215Y-102001968D01*
X123287219Y-102001966D01*
X123431966Y-101857219D01*
X123431968Y-101857215D01*
X123431971Y-101857213D01*
X123552284Y-101691614D01*
X123552286Y-101691611D01*
X123552287Y-101691610D01*
X123599795Y-101598369D01*
X123647770Y-101547574D01*
X123715591Y-101530779D01*
X123781725Y-101553316D01*
X123820765Y-101598370D01*
X123868140Y-101691349D01*
X123988417Y-101856894D01*
X123988417Y-101856895D01*
X124133104Y-102001582D01*
X124298650Y-102121859D01*
X124480968Y-102214754D01*
X124675578Y-102277988D01*
X124730000Y-102286607D01*
X124730000Y-101443012D01*
X124787007Y-101475925D01*
X124914174Y-101510000D01*
X125045826Y-101510000D01*
X125172993Y-101475925D01*
X125230000Y-101443012D01*
X125230000Y-102286606D01*
X125284421Y-102277988D01*
X125479031Y-102214754D01*
X125661349Y-102121859D01*
X125826894Y-102001582D01*
X125826895Y-102001582D01*
X125971582Y-101856895D01*
X125971582Y-101856894D01*
X126091861Y-101691347D01*
X126139234Y-101598371D01*
X126187208Y-101547575D01*
X126255028Y-101530779D01*
X126321164Y-101553316D01*
X126360203Y-101598369D01*
X126407713Y-101691611D01*
X126528028Y-101857213D01*
X126672786Y-102001971D01*
X126799416Y-102093971D01*
X126838390Y-102122287D01*
X126919499Y-102163614D01*
X127020776Y-102215218D01*
X127020778Y-102215218D01*
X127020781Y-102215220D01*
X127050838Y-102224986D01*
X127215465Y-102278477D01*
X127316557Y-102294488D01*
X127417648Y-102310500D01*
X127417649Y-102310500D01*
X127622351Y-102310500D01*
X127622352Y-102310500D01*
X127824534Y-102278477D01*
X128019219Y-102215220D01*
X128201610Y-102122287D01*
X128319018Y-102036986D01*
X128367213Y-102001971D01*
X128367215Y-102001968D01*
X128367219Y-102001966D01*
X128511966Y-101857219D01*
X128511968Y-101857215D01*
X128511971Y-101857213D01*
X128632284Y-101691614D01*
X128632286Y-101691611D01*
X128632287Y-101691610D01*
X128679516Y-101598917D01*
X128727489Y-101548123D01*
X128795310Y-101531328D01*
X128861445Y-101553865D01*
X128900485Y-101598919D01*
X128947715Y-101691614D01*
X129068028Y-101857213D01*
X129212786Y-102001971D01*
X129339416Y-102093971D01*
X129378390Y-102122287D01*
X129459499Y-102163614D01*
X129560776Y-102215218D01*
X129560778Y-102215218D01*
X129560781Y-102215220D01*
X129590838Y-102224986D01*
X129755465Y-102278477D01*
X129856557Y-102294488D01*
X129957648Y-102310500D01*
X129957649Y-102310500D01*
X130162351Y-102310500D01*
X130162352Y-102310500D01*
X130364534Y-102278477D01*
X130378842Y-102273827D01*
X130448682Y-102271831D01*
X130504842Y-102304077D01*
X133913181Y-105712416D01*
X133946666Y-105773739D01*
X133949500Y-105800097D01*
X133949500Y-109375500D01*
X133929815Y-109442539D01*
X133877011Y-109488294D01*
X133825500Y-109499500D01*
X133502130Y-109499500D01*
X133502123Y-109499501D01*
X133442516Y-109505908D01*
X133307671Y-109556202D01*
X133307664Y-109556206D01*
X133192455Y-109642452D01*
X133192452Y-109642455D01*
X133106206Y-109757664D01*
X133106202Y-109757671D01*
X133055908Y-109892517D01*
X133049501Y-109952116D01*
X133049501Y-109952123D01*
X133049500Y-109952135D01*
X133049500Y-112047870D01*
X133049501Y-112047876D01*
X133055908Y-112107483D01*
X133106202Y-112242328D01*
X133106206Y-112242335D01*
X133192452Y-112357544D01*
X133192455Y-112357547D01*
X133307664Y-112443793D01*
X133307671Y-112443797D01*
X133442517Y-112494091D01*
X133442516Y-112494091D01*
X133449444Y-112494835D01*
X133502127Y-112500500D01*
X135597872Y-112500499D01*
X135657483Y-112494091D01*
X135792331Y-112443796D01*
X135907546Y-112357546D01*
X135993796Y-112242331D01*
X136044091Y-112107483D01*
X136050500Y-112047873D01*
X136050499Y-109952128D01*
X136044091Y-109892517D01*
X135993796Y-109757669D01*
X135993795Y-109757668D01*
X135993793Y-109757664D01*
X135907547Y-109642455D01*
X135907544Y-109642452D01*
X135792335Y-109556206D01*
X135792328Y-109556202D01*
X135657482Y-109505908D01*
X135657483Y-109505908D01*
X135597883Y-109499501D01*
X135597881Y-109499500D01*
X135597873Y-109499500D01*
X135597865Y-109499500D01*
X135274500Y-109499500D01*
X135207461Y-109479815D01*
X135161706Y-109427011D01*
X135150500Y-109375500D01*
X135150500Y-105989097D01*
X135170185Y-105922058D01*
X135222989Y-105876303D01*
X135292147Y-105866359D01*
X135355703Y-105895384D01*
X135362181Y-105901416D01*
X151265921Y-121805157D01*
X151299406Y-121866480D01*
X151296173Y-121931149D01*
X151291523Y-121945460D01*
X151291523Y-121945462D01*
X151259500Y-122147648D01*
X151259500Y-122352351D01*
X151291522Y-122554534D01*
X151354781Y-122749223D01*
X151447715Y-122931613D01*
X151568028Y-123097213D01*
X151712786Y-123241971D01*
X151867749Y-123354556D01*
X151878390Y-123362287D01*
X151994607Y-123421503D01*
X152060776Y-123455218D01*
X152060778Y-123455218D01*
X152060781Y-123455220D01*
X152165137Y-123489127D01*
X152255465Y-123518477D01*
X152356557Y-123534488D01*
X152457648Y-123550500D01*
X152457649Y-123550500D01*
X152662351Y-123550500D01*
X152662352Y-123550500D01*
X152864534Y-123518477D01*
X153059219Y-123455220D01*
X153241610Y-123362287D01*
X153334590Y-123294732D01*
X153407213Y-123241971D01*
X153407215Y-123241968D01*
X153407219Y-123241966D01*
X153551966Y-123097219D01*
X153551968Y-123097215D01*
X153551971Y-123097213D01*
X153604732Y-123024590D01*
X153672287Y-122931610D01*
X153765220Y-122749219D01*
X153828477Y-122554534D01*
X153860500Y-122352352D01*
X153860500Y-122147648D01*
X153828477Y-121945466D01*
X153765220Y-121750781D01*
X153765218Y-121750778D01*
X153765218Y-121750776D01*
X153731503Y-121684607D01*
X153672287Y-121568390D01*
X153660492Y-121552155D01*
X153551971Y-121402786D01*
X153407213Y-121258028D01*
X153241613Y-121137715D01*
X153241612Y-121137714D01*
X153241610Y-121137713D01*
X153167594Y-121100000D01*
X153059223Y-121044781D01*
X152864534Y-120981522D01*
X152689995Y-120953878D01*
X152662352Y-120949500D01*
X152457648Y-120949500D01*
X152417211Y-120955904D01*
X152255462Y-120981523D01*
X152255460Y-120981523D01*
X152241149Y-120986173D01*
X152171308Y-120988164D01*
X152115157Y-120955921D01*
X142945399Y-111786163D01*
X133384220Y-102224985D01*
X133350736Y-102163663D01*
X133355720Y-102093971D01*
X133397592Y-102038038D01*
X133399018Y-102036986D01*
X133447215Y-102001969D01*
X133447215Y-102001968D01*
X133447219Y-102001966D01*
X133591966Y-101857219D01*
X133591968Y-101857215D01*
X133591971Y-101857213D01*
X133712284Y-101691614D01*
X133712286Y-101691611D01*
X133712287Y-101691610D01*
X133759516Y-101598917D01*
X133807489Y-101548123D01*
X133875310Y-101531328D01*
X133941445Y-101553865D01*
X133980485Y-101598919D01*
X134027715Y-101691614D01*
X134148028Y-101857213D01*
X134292786Y-102001971D01*
X134419416Y-102093971D01*
X134458390Y-102122287D01*
X134539499Y-102163614D01*
X134640776Y-102215218D01*
X134640778Y-102215218D01*
X134640781Y-102215220D01*
X134670838Y-102224986D01*
X134835465Y-102278477D01*
X134936557Y-102294488D01*
X135037648Y-102310500D01*
X135037649Y-102310500D01*
X135242351Y-102310500D01*
X135242352Y-102310500D01*
X135444534Y-102278477D01*
X135639219Y-102215220D01*
X135821610Y-102122287D01*
X135939018Y-102036986D01*
X135987213Y-102001971D01*
X135987215Y-102001968D01*
X135987219Y-102001966D01*
X136131966Y-101857219D01*
X136131968Y-101857215D01*
X136131971Y-101857213D01*
X136252284Y-101691614D01*
X136252286Y-101691611D01*
X136252287Y-101691610D01*
X136299516Y-101598917D01*
X136347489Y-101548123D01*
X136415310Y-101531328D01*
X136481445Y-101553865D01*
X136520485Y-101598919D01*
X136567715Y-101691614D01*
X136688028Y-101857213D01*
X136832786Y-102001971D01*
X136959416Y-102093971D01*
X136998390Y-102122287D01*
X137079499Y-102163614D01*
X137180776Y-102215218D01*
X137180778Y-102215218D01*
X137180781Y-102215220D01*
X137210838Y-102224986D01*
X137375465Y-102278477D01*
X137476557Y-102294488D01*
X137577648Y-102310500D01*
X137577649Y-102310500D01*
X137782351Y-102310500D01*
X137782352Y-102310500D01*
X137984534Y-102278477D01*
X138179219Y-102215220D01*
X138361610Y-102122287D01*
X138479018Y-102036986D01*
X138527213Y-102001971D01*
X138527215Y-102001968D01*
X138527219Y-102001966D01*
X138671966Y-101857219D01*
X138671968Y-101857215D01*
X138671971Y-101857213D01*
X138792284Y-101691614D01*
X138792286Y-101691611D01*
X138792287Y-101691610D01*
X138839516Y-101598917D01*
X138887489Y-101548123D01*
X138955310Y-101531328D01*
X139021445Y-101553865D01*
X139060485Y-101598919D01*
X139107715Y-101691614D01*
X139228028Y-101857213D01*
X139372786Y-102001971D01*
X139499416Y-102093971D01*
X139538390Y-102122287D01*
X139619499Y-102163614D01*
X139720776Y-102215218D01*
X139720778Y-102215218D01*
X139720781Y-102215220D01*
X139750838Y-102224986D01*
X139915465Y-102278477D01*
X140016557Y-102294488D01*
X140117648Y-102310500D01*
X140117649Y-102310500D01*
X140322351Y-102310500D01*
X140322352Y-102310500D01*
X140524534Y-102278477D01*
X140719219Y-102215220D01*
X140901610Y-102122287D01*
X141019018Y-102036986D01*
X141067213Y-102001971D01*
X141067215Y-102001968D01*
X141067219Y-102001966D01*
X141211966Y-101857219D01*
X141211968Y-101857215D01*
X141211971Y-101857213D01*
X141264732Y-101784590D01*
X141332287Y-101691610D01*
X141425220Y-101509219D01*
X141488477Y-101314534D01*
X141520500Y-101112352D01*
X141520500Y-100907648D01*
X141488477Y-100705466D01*
X141487673Y-100702993D01*
X141425218Y-100510776D01*
X141332419Y-100328650D01*
X141332287Y-100328390D01*
X141324556Y-100317749D01*
X141211971Y-100162786D01*
X141067213Y-100018028D01*
X140901613Y-99897715D01*
X140901612Y-99897714D01*
X140901610Y-99897713D01*
X140844653Y-99868691D01*
X140719223Y-99804781D01*
X140524534Y-99741522D01*
X140349995Y-99713878D01*
X140322352Y-99709500D01*
X140117648Y-99709500D01*
X140093329Y-99713351D01*
X139915465Y-99741522D01*
X139720776Y-99804781D01*
X139538386Y-99897715D01*
X139372786Y-100018028D01*
X139228028Y-100162786D01*
X139107715Y-100328386D01*
X139060485Y-100421080D01*
X139012510Y-100471876D01*
X138944689Y-100488671D01*
X138878554Y-100466134D01*
X138839515Y-100421080D01*
X138792419Y-100328650D01*
X138792287Y-100328390D01*
X138784556Y-100317749D01*
X138671971Y-100162786D01*
X138527213Y-100018028D01*
X138361613Y-99897715D01*
X138361612Y-99897714D01*
X138361610Y-99897713D01*
X138304653Y-99868691D01*
X138179223Y-99804781D01*
X137984534Y-99741522D01*
X137809995Y-99713878D01*
X137782352Y-99709500D01*
X137577648Y-99709500D01*
X137553329Y-99713351D01*
X137375465Y-99741522D01*
X137180776Y-99804781D01*
X136998386Y-99897715D01*
X136832786Y-100018028D01*
X136688028Y-100162786D01*
X136567715Y-100328386D01*
X136520485Y-100421080D01*
X136472510Y-100471876D01*
X136404689Y-100488671D01*
X136338554Y-100466134D01*
X136299515Y-100421080D01*
X136252419Y-100328650D01*
X136252287Y-100328390D01*
X136244556Y-100317749D01*
X136131971Y-100162786D01*
X135987213Y-100018028D01*
X135821613Y-99897715D01*
X135821612Y-99897714D01*
X135821610Y-99897713D01*
X135764653Y-99868691D01*
X135639223Y-99804781D01*
X135444534Y-99741522D01*
X135269995Y-99713878D01*
X135242352Y-99709500D01*
X135037648Y-99709500D01*
X135013329Y-99713351D01*
X134835465Y-99741522D01*
X134640776Y-99804781D01*
X134458386Y-99897715D01*
X134292786Y-100018028D01*
X134148028Y-100162786D01*
X134027715Y-100328386D01*
X133980485Y-100421080D01*
X133932510Y-100471876D01*
X133864689Y-100488671D01*
X133798554Y-100466134D01*
X133759515Y-100421080D01*
X133712419Y-100328650D01*
X133712287Y-100328390D01*
X133704556Y-100317749D01*
X133591971Y-100162786D01*
X133447213Y-100018028D01*
X133281613Y-99897715D01*
X133281612Y-99897714D01*
X133281610Y-99897713D01*
X133224653Y-99868691D01*
X133099223Y-99804781D01*
X132904534Y-99741522D01*
X132729995Y-99713878D01*
X132702352Y-99709500D01*
X132497648Y-99709500D01*
X132473329Y-99713351D01*
X132295465Y-99741522D01*
X132100776Y-99804781D01*
X131918386Y-99897715D01*
X131752786Y-100018028D01*
X131608028Y-100162786D01*
X131487715Y-100328386D01*
X131440485Y-100421080D01*
X131392510Y-100471876D01*
X131324689Y-100488671D01*
X131258554Y-100466134D01*
X131219515Y-100421080D01*
X131172419Y-100328650D01*
X131172287Y-100328390D01*
X131164556Y-100317749D01*
X131051971Y-100162786D01*
X130907213Y-100018028D01*
X130741613Y-99897715D01*
X130741612Y-99897714D01*
X130741610Y-99897713D01*
X130684653Y-99868691D01*
X130559223Y-99804781D01*
X130364534Y-99741522D01*
X130189995Y-99713878D01*
X130162352Y-99709500D01*
X129957648Y-99709500D01*
X129933329Y-99713351D01*
X129755465Y-99741522D01*
X129560776Y-99804781D01*
X129378386Y-99897715D01*
X129212786Y-100018028D01*
X129068028Y-100162786D01*
X128947715Y-100328386D01*
X128900485Y-100421080D01*
X128852510Y-100471876D01*
X128784689Y-100488671D01*
X128718554Y-100466134D01*
X128679515Y-100421080D01*
X128632419Y-100328650D01*
X128632287Y-100328390D01*
X128624556Y-100317749D01*
X128511971Y-100162786D01*
X128367213Y-100018028D01*
X128201613Y-99897715D01*
X128201612Y-99897714D01*
X128201610Y-99897713D01*
X128144653Y-99868691D01*
X128019223Y-99804781D01*
X127824534Y-99741522D01*
X127649995Y-99713878D01*
X127622352Y-99709500D01*
X127417648Y-99709500D01*
X127393329Y-99713351D01*
X127215465Y-99741522D01*
X127020776Y-99804781D01*
X126838386Y-99897715D01*
X126672786Y-100018028D01*
X126528028Y-100162786D01*
X126407713Y-100328388D01*
X126360203Y-100421630D01*
X126312228Y-100472426D01*
X126244407Y-100489220D01*
X126178272Y-100466682D01*
X126139234Y-100421628D01*
X126091861Y-100328652D01*
X125971582Y-100163105D01*
X125971582Y-100163104D01*
X125826895Y-100018417D01*
X125661349Y-99898140D01*
X125479029Y-99805244D01*
X125284413Y-99742009D01*
X125230000Y-99733390D01*
X125230000Y-100576988D01*
X125172993Y-100544075D01*
X125045826Y-100510000D01*
X124914174Y-100510000D01*
X124787007Y-100544075D01*
X124730000Y-100576988D01*
X124730000Y-99733390D01*
X124675586Y-99742009D01*
X124480970Y-99805244D01*
X124298650Y-99898140D01*
X124133105Y-100018417D01*
X124133104Y-100018417D01*
X123988417Y-100163104D01*
X123988417Y-100163105D01*
X123868140Y-100328650D01*
X123820765Y-100421629D01*
X123772790Y-100472425D01*
X123704969Y-100489220D01*
X123638834Y-100466682D01*
X123599795Y-100421629D01*
X123552419Y-100328650D01*
X123552287Y-100328390D01*
X123544556Y-100317749D01*
X123431971Y-100162786D01*
X123287213Y-100018028D01*
X123121613Y-99897715D01*
X123121612Y-99897714D01*
X123121610Y-99897713D01*
X123064653Y-99868691D01*
X122939223Y-99804781D01*
X122744534Y-99741522D01*
X122569995Y-99713878D01*
X122542352Y-99709500D01*
X122337648Y-99709500D01*
X122313329Y-99713351D01*
X122135465Y-99741522D01*
X121940776Y-99804781D01*
X121758386Y-99897715D01*
X121592786Y-100018028D01*
X121448028Y-100162786D01*
X121327715Y-100328386D01*
X121280485Y-100421080D01*
X121232510Y-100471876D01*
X121164689Y-100488671D01*
X121098554Y-100466134D01*
X121059515Y-100421080D01*
X121012419Y-100328650D01*
X121012287Y-100328390D01*
X121004556Y-100317749D01*
X120891971Y-100162786D01*
X120747213Y-100018028D01*
X120581613Y-99897715D01*
X120581612Y-99897714D01*
X120581610Y-99897713D01*
X120524653Y-99868691D01*
X120399223Y-99804781D01*
X120204534Y-99741522D01*
X120029995Y-99713878D01*
X120002352Y-99709500D01*
X119797648Y-99709500D01*
X119773329Y-99713351D01*
X119595465Y-99741522D01*
X119400776Y-99804781D01*
X119218386Y-99897715D01*
X119052786Y-100018028D01*
X118908028Y-100162786D01*
X118787715Y-100328386D01*
X118740485Y-100421080D01*
X118692510Y-100471876D01*
X118624689Y-100488671D01*
X118558554Y-100466134D01*
X118519515Y-100421080D01*
X118472419Y-100328650D01*
X118472287Y-100328390D01*
X118464556Y-100317749D01*
X118351971Y-100162786D01*
X118207213Y-100018028D01*
X118041613Y-99897715D01*
X118041612Y-99897714D01*
X118041610Y-99897713D01*
X117984653Y-99868691D01*
X117859223Y-99804781D01*
X117664534Y-99741522D01*
X117489995Y-99713878D01*
X117462352Y-99709500D01*
X117257648Y-99709500D01*
X117233329Y-99713351D01*
X117055465Y-99741522D01*
X116860776Y-99804781D01*
X116678386Y-99897715D01*
X116512786Y-100018028D01*
X116368028Y-100162786D01*
X116247715Y-100328386D01*
X116154781Y-100510776D01*
X116091522Y-100705465D01*
X116059500Y-100907648D01*
X85750500Y-100907648D01*
X85750500Y-43953920D01*
X124499499Y-43953920D01*
X124528340Y-44098907D01*
X124528343Y-44098917D01*
X124584914Y-44235492D01*
X124617812Y-44284727D01*
X124617813Y-44284730D01*
X124667046Y-44358414D01*
X124667052Y-44358421D01*
X131547699Y-51239066D01*
X131581184Y-51300389D01*
X131576200Y-51370081D01*
X131534328Y-51426014D01*
X131479416Y-51449220D01*
X131275465Y-51481522D01*
X131080776Y-51544781D01*
X130898386Y-51637715D01*
X130732786Y-51758028D01*
X130588028Y-51902786D01*
X130467715Y-52068386D01*
X130420485Y-52161080D01*
X130372510Y-52211876D01*
X130304689Y-52228671D01*
X130238554Y-52206134D01*
X130199515Y-52161080D01*
X130185015Y-52132622D01*
X130152287Y-52068390D01*
X130144556Y-52057749D01*
X130031971Y-51902786D01*
X129887213Y-51758028D01*
X129721613Y-51637715D01*
X129721612Y-51637714D01*
X129721610Y-51637713D01*
X129664653Y-51608691D01*
X129539223Y-51544781D01*
X129344534Y-51481522D01*
X129169995Y-51453878D01*
X129142352Y-51449500D01*
X128937648Y-51449500D01*
X128913329Y-51453351D01*
X128735465Y-51481522D01*
X128540776Y-51544781D01*
X128358386Y-51637715D01*
X128192786Y-51758028D01*
X128048032Y-51902782D01*
X128021668Y-51939070D01*
X127966338Y-51981735D01*
X127896724Y-51987714D01*
X127834929Y-51955108D01*
X127800572Y-51894269D01*
X127798060Y-51879438D01*
X127797640Y-51875533D01*
X127794091Y-51842517D01*
X127743796Y-51707669D01*
X127743795Y-51707668D01*
X127743793Y-51707664D01*
X127657547Y-51592455D01*
X127657544Y-51592452D01*
X127542335Y-51506206D01*
X127542328Y-51506202D01*
X127407482Y-51455908D01*
X127407483Y-51455908D01*
X127347883Y-51449501D01*
X127347881Y-51449500D01*
X127347873Y-51449500D01*
X127347864Y-51449500D01*
X125652129Y-51449500D01*
X125652123Y-51449501D01*
X125592516Y-51455908D01*
X125457671Y-51506202D01*
X125457664Y-51506206D01*
X125342455Y-51592452D01*
X125342452Y-51592455D01*
X125256206Y-51707664D01*
X125256202Y-51707671D01*
X125205908Y-51842517D01*
X125199501Y-51902116D01*
X125199500Y-51902135D01*
X125199500Y-53597870D01*
X125199501Y-53597876D01*
X125205908Y-53657483D01*
X125256202Y-53792328D01*
X125256206Y-53792335D01*
X125342452Y-53907544D01*
X125342455Y-53907547D01*
X125457664Y-53993793D01*
X125457671Y-53993797D01*
X125592517Y-54044091D01*
X125592516Y-54044091D01*
X125599444Y-54044835D01*
X125652127Y-54050500D01*
X127347872Y-54050499D01*
X127407483Y-54044091D01*
X127542331Y-53993796D01*
X127657546Y-53907546D01*
X127743796Y-53792331D01*
X127794091Y-53657483D01*
X127798061Y-53620556D01*
X127824796Y-53556011D01*
X127882188Y-53516161D01*
X127952013Y-53513666D01*
X128012102Y-53549317D01*
X128021667Y-53560929D01*
X128048032Y-53597217D01*
X128192786Y-53741971D01*
X128347749Y-53854556D01*
X128358390Y-53862287D01*
X128447212Y-53907544D01*
X128540776Y-53955218D01*
X128540778Y-53955218D01*
X128540781Y-53955220D01*
X128645137Y-53989127D01*
X128735465Y-54018477D01*
X128836557Y-54034488D01*
X128937648Y-54050500D01*
X128937649Y-54050500D01*
X129142351Y-54050500D01*
X129142352Y-54050500D01*
X129344534Y-54018477D01*
X129539219Y-53955220D01*
X129721610Y-53862287D01*
X129817901Y-53792328D01*
X129887213Y-53741971D01*
X129887215Y-53741968D01*
X129887219Y-53741966D01*
X130031966Y-53597219D01*
X130031968Y-53597215D01*
X130031971Y-53597213D01*
X130152284Y-53431614D01*
X130152286Y-53431611D01*
X130152287Y-53431610D01*
X130199516Y-53338917D01*
X130247489Y-53288123D01*
X130315310Y-53271328D01*
X130381445Y-53293865D01*
X130420485Y-53338919D01*
X130467715Y-53431614D01*
X130588028Y-53597213D01*
X130732786Y-53741971D01*
X130887749Y-53854556D01*
X130898390Y-53862287D01*
X130987212Y-53907544D01*
X131080776Y-53955218D01*
X131080778Y-53955218D01*
X131080781Y-53955220D01*
X131185137Y-53989127D01*
X131275465Y-54018477D01*
X131376557Y-54034488D01*
X131477648Y-54050500D01*
X131477649Y-54050500D01*
X131682351Y-54050500D01*
X131682352Y-54050500D01*
X131884534Y-54018477D01*
X132079219Y-53955220D01*
X132261610Y-53862287D01*
X132357901Y-53792328D01*
X132427213Y-53741971D01*
X132427215Y-53741968D01*
X132427219Y-53741966D01*
X132571966Y-53597219D01*
X132571968Y-53597215D01*
X132571971Y-53597213D01*
X132692284Y-53431614D01*
X132692286Y-53431611D01*
X132692287Y-53431610D01*
X132739516Y-53338917D01*
X132787489Y-53288123D01*
X132855310Y-53271328D01*
X132921445Y-53293865D01*
X132960485Y-53338919D01*
X133007715Y-53431614D01*
X133128028Y-53597213D01*
X133272786Y-53741971D01*
X133427749Y-53854556D01*
X133438390Y-53862287D01*
X133527212Y-53907544D01*
X133620776Y-53955218D01*
X133620778Y-53955218D01*
X133620781Y-53955220D01*
X133725137Y-53989127D01*
X133815465Y-54018477D01*
X133916557Y-54034488D01*
X134017648Y-54050500D01*
X134017649Y-54050500D01*
X134222351Y-54050500D01*
X134222352Y-54050500D01*
X134424534Y-54018477D01*
X134619219Y-53955220D01*
X134801610Y-53862287D01*
X134897901Y-53792328D01*
X134967213Y-53741971D01*
X134967215Y-53741968D01*
X134967219Y-53741966D01*
X135111966Y-53597219D01*
X135111968Y-53597215D01*
X135111971Y-53597213D01*
X135232284Y-53431614D01*
X135232286Y-53431611D01*
X135232287Y-53431610D01*
X135279516Y-53338917D01*
X135327489Y-53288123D01*
X135395310Y-53271328D01*
X135461445Y-53293865D01*
X135500485Y-53338919D01*
X135547715Y-53431614D01*
X135668028Y-53597213D01*
X135812786Y-53741971D01*
X135967749Y-53854556D01*
X135978390Y-53862287D01*
X136067212Y-53907544D01*
X136160776Y-53955218D01*
X136160778Y-53955218D01*
X136160781Y-53955220D01*
X136265137Y-53989127D01*
X136355465Y-54018477D01*
X136456557Y-54034488D01*
X136557648Y-54050500D01*
X136557649Y-54050500D01*
X136762351Y-54050500D01*
X136762352Y-54050500D01*
X136964534Y-54018477D01*
X137159219Y-53955220D01*
X137341610Y-53862287D01*
X137437901Y-53792328D01*
X137507213Y-53741971D01*
X137507215Y-53741968D01*
X137507219Y-53741966D01*
X137651966Y-53597219D01*
X137651968Y-53597215D01*
X137651971Y-53597213D01*
X137772284Y-53431614D01*
X137772286Y-53431611D01*
X137772287Y-53431610D01*
X137819795Y-53338369D01*
X137867770Y-53287574D01*
X137935591Y-53270779D01*
X138001725Y-53293316D01*
X138040765Y-53338370D01*
X138088140Y-53431349D01*
X138208417Y-53596894D01*
X138208417Y-53596895D01*
X138353104Y-53741582D01*
X138518650Y-53861859D01*
X138700968Y-53954754D01*
X138895578Y-54017988D01*
X138950000Y-54026607D01*
X138950000Y-53183012D01*
X139007007Y-53215925D01*
X139134174Y-53250000D01*
X139265826Y-53250000D01*
X139392993Y-53215925D01*
X139450000Y-53183012D01*
X139450000Y-54026606D01*
X139504421Y-54017988D01*
X139699031Y-53954754D01*
X139881349Y-53861859D01*
X140046894Y-53741582D01*
X140046895Y-53741582D01*
X140191582Y-53596895D01*
X140191582Y-53596894D01*
X140311859Y-53431349D01*
X140359515Y-53337820D01*
X140407489Y-53287024D01*
X140475310Y-53270229D01*
X140541445Y-53292766D01*
X140580485Y-53337820D01*
X140628140Y-53431349D01*
X140748417Y-53596894D01*
X140748417Y-53596895D01*
X140893104Y-53741582D01*
X141058650Y-53861859D01*
X141240968Y-53954754D01*
X141435578Y-54017988D01*
X141490000Y-54026607D01*
X141490000Y-53183012D01*
X141547007Y-53215925D01*
X141674174Y-53250000D01*
X141805826Y-53250000D01*
X141932993Y-53215925D01*
X141990000Y-53183012D01*
X141990000Y-54026606D01*
X142044421Y-54017988D01*
X142239031Y-53954754D01*
X142421349Y-53861859D01*
X142586894Y-53741582D01*
X142586895Y-53741582D01*
X142731582Y-53596895D01*
X142731582Y-53596894D01*
X142851861Y-53431347D01*
X142899234Y-53338371D01*
X142947208Y-53287575D01*
X143015028Y-53270779D01*
X143081164Y-53293316D01*
X143120203Y-53338369D01*
X143167713Y-53431611D01*
X143288028Y-53597213D01*
X143432786Y-53741971D01*
X143587749Y-53854556D01*
X143598390Y-53862287D01*
X143687212Y-53907544D01*
X143780776Y-53955218D01*
X143780778Y-53955218D01*
X143780781Y-53955220D01*
X143885137Y-53989127D01*
X143975465Y-54018477D01*
X144076557Y-54034488D01*
X144177648Y-54050500D01*
X144177649Y-54050500D01*
X144382351Y-54050500D01*
X144382352Y-54050500D01*
X144584534Y-54018477D01*
X144779219Y-53955220D01*
X144961610Y-53862287D01*
X145057901Y-53792328D01*
X145127213Y-53741971D01*
X145127215Y-53741968D01*
X145127219Y-53741966D01*
X145271966Y-53597219D01*
X145271968Y-53597215D01*
X145271971Y-53597213D01*
X145332670Y-53513666D01*
X145392287Y-53431610D01*
X145485220Y-53249219D01*
X145548477Y-53054534D01*
X145580500Y-52852352D01*
X145580500Y-52647648D01*
X145566144Y-52557007D01*
X145548477Y-52445465D01*
X145485218Y-52250776D01*
X145430489Y-52143366D01*
X145392287Y-52068390D01*
X145384556Y-52057749D01*
X145271971Y-51902786D01*
X145127217Y-51758032D01*
X145127212Y-51758028D01*
X145081615Y-51724900D01*
X145038949Y-51669571D01*
X145030500Y-51624582D01*
X145030500Y-42632228D01*
X145050185Y-42565189D01*
X145066814Y-42544552D01*
X146315295Y-41296070D01*
X146355519Y-41269193D01*
X146379179Y-41259394D01*
X146510289Y-41171789D01*
X146621789Y-41060289D01*
X146709394Y-40929179D01*
X146769737Y-40783497D01*
X146800500Y-40628842D01*
X146800500Y-40471158D01*
X146800500Y-40471155D01*
X146800499Y-40471153D01*
X146793060Y-40433753D01*
X146769737Y-40316503D01*
X146735855Y-40234704D01*
X146709397Y-40170827D01*
X146709390Y-40170814D01*
X146621789Y-40039711D01*
X146621786Y-40039707D01*
X146510292Y-39928213D01*
X146510288Y-39928210D01*
X146379185Y-39840609D01*
X146379172Y-39840602D01*
X146233501Y-39780264D01*
X146233489Y-39780261D01*
X146078845Y-39749500D01*
X146078842Y-39749500D01*
X145921158Y-39749500D01*
X145921155Y-39749500D01*
X145766510Y-39780261D01*
X145766498Y-39780264D01*
X145620827Y-39840602D01*
X145620814Y-39840609D01*
X145489711Y-39928210D01*
X145489707Y-39928213D01*
X145378213Y-40039707D01*
X145378207Y-40039715D01*
X145290607Y-40170818D01*
X145290605Y-40170822D01*
X145280805Y-40194480D01*
X145253927Y-40234704D01*
X143697050Y-41791580D01*
X143697044Y-41791588D01*
X143647812Y-41865268D01*
X143647813Y-41865269D01*
X143614921Y-41914496D01*
X143614914Y-41914508D01*
X143558342Y-42051086D01*
X143558340Y-42051092D01*
X143529500Y-42196079D01*
X143529500Y-51624582D01*
X143509815Y-51691621D01*
X143478385Y-51724900D01*
X143432787Y-51758028D01*
X143432782Y-51758032D01*
X143288028Y-51902786D01*
X143167713Y-52068388D01*
X143120203Y-52161630D01*
X143072228Y-52212426D01*
X143004407Y-52229220D01*
X142938272Y-52206682D01*
X142899234Y-52161628D01*
X142851861Y-52068652D01*
X142731582Y-51903105D01*
X142731582Y-51903104D01*
X142586895Y-51758417D01*
X142421349Y-51638140D01*
X142239029Y-51545244D01*
X142044413Y-51482009D01*
X141990000Y-51473390D01*
X141990000Y-52316988D01*
X141932993Y-52284075D01*
X141805826Y-52250000D01*
X141674174Y-52250000D01*
X141547007Y-52284075D01*
X141490000Y-52316988D01*
X141490000Y-51473390D01*
X141435586Y-51482009D01*
X141240970Y-51545244D01*
X141058650Y-51638140D01*
X140893105Y-51758417D01*
X140893104Y-51758417D01*
X140748417Y-51903104D01*
X140748417Y-51903105D01*
X140628140Y-52068650D01*
X140580485Y-52162179D01*
X140532510Y-52212975D01*
X140464689Y-52229770D01*
X140398554Y-52207232D01*
X140359515Y-52162179D01*
X140311859Y-52068650D01*
X140191582Y-51903105D01*
X140191582Y-51903104D01*
X140046895Y-51758417D01*
X139881349Y-51638140D01*
X139699029Y-51545244D01*
X139504413Y-51482009D01*
X139450000Y-51473390D01*
X139450000Y-52316988D01*
X139392993Y-52284075D01*
X139265826Y-52250000D01*
X139134174Y-52250000D01*
X139007007Y-52284075D01*
X138950000Y-52316988D01*
X138950000Y-51473390D01*
X138895586Y-51482009D01*
X138700970Y-51545244D01*
X138518650Y-51638140D01*
X138353105Y-51758417D01*
X138353104Y-51758417D01*
X138208417Y-51903104D01*
X138208417Y-51903105D01*
X138088140Y-52068650D01*
X138040765Y-52161629D01*
X137992790Y-52212425D01*
X137924969Y-52229220D01*
X137858834Y-52206682D01*
X137819795Y-52161629D01*
X137805015Y-52132622D01*
X137772287Y-52068390D01*
X137764556Y-52057749D01*
X137651971Y-51902786D01*
X137507213Y-51758028D01*
X137341613Y-51637715D01*
X137341612Y-51637714D01*
X137341610Y-51637713D01*
X137283176Y-51607939D01*
X137159219Y-51544779D01*
X137086180Y-51521047D01*
X137028505Y-51481609D01*
X137001308Y-51417250D01*
X137000500Y-51403117D01*
X137000500Y-50926079D01*
X136971659Y-50781092D01*
X136971658Y-50781091D01*
X136971658Y-50781087D01*
X136971656Y-50781082D01*
X136915087Y-50644511D01*
X136915080Y-50644498D01*
X136832952Y-50521585D01*
X136832951Y-50521584D01*
X136728416Y-50417049D01*
X129786819Y-43475451D01*
X129753334Y-43414128D01*
X129750500Y-43387770D01*
X129750500Y-37102135D01*
X136149500Y-37102135D01*
X136149500Y-38897870D01*
X136149501Y-38897876D01*
X136155908Y-38957483D01*
X136206202Y-39092328D01*
X136206206Y-39092335D01*
X136292452Y-39207544D01*
X136292455Y-39207547D01*
X136407664Y-39293793D01*
X136407671Y-39293797D01*
X136452618Y-39310561D01*
X136542517Y-39344091D01*
X136602127Y-39350500D01*
X136612685Y-39350499D01*
X136679723Y-39370179D01*
X136700372Y-39386818D01*
X137370591Y-40057037D01*
X137307007Y-40074075D01*
X137192993Y-40139901D01*
X137099901Y-40232993D01*
X137034075Y-40347007D01*
X137017037Y-40410591D01*
X136384728Y-39778282D01*
X136384727Y-39778282D01*
X136345380Y-39832439D01*
X136248904Y-40021782D01*
X136183242Y-40223869D01*
X136183242Y-40223872D01*
X136150000Y-40433753D01*
X136150000Y-40646246D01*
X136183242Y-40856127D01*
X136183242Y-40856130D01*
X136248904Y-41058217D01*
X136345375Y-41247550D01*
X136384728Y-41301716D01*
X137017037Y-40669408D01*
X137034075Y-40732993D01*
X137099901Y-40847007D01*
X137192993Y-40940099D01*
X137307007Y-41005925D01*
X137370590Y-41022962D01*
X136738282Y-41655269D01*
X136738282Y-41655270D01*
X136792449Y-41694624D01*
X136981782Y-41791095D01*
X137183870Y-41856757D01*
X137393754Y-41890000D01*
X137606246Y-41890000D01*
X137816127Y-41856757D01*
X137816130Y-41856757D01*
X138018217Y-41791095D01*
X138207554Y-41694622D01*
X138261716Y-41655270D01*
X138261717Y-41655270D01*
X137629408Y-41022962D01*
X137692993Y-41005925D01*
X137807007Y-40940099D01*
X137900099Y-40847007D01*
X137965925Y-40732993D01*
X137982962Y-40669409D01*
X138615270Y-41301717D01*
X138615270Y-41301716D01*
X138654622Y-41247554D01*
X138751095Y-41058217D01*
X138816757Y-40856130D01*
X138816757Y-40856127D01*
X138850000Y-40646246D01*
X138850000Y-40433753D01*
X138816757Y-40223872D01*
X138816757Y-40223869D01*
X138751095Y-40021782D01*
X138654624Y-39832449D01*
X138615270Y-39778282D01*
X138615269Y-39778282D01*
X137982962Y-40410590D01*
X137965925Y-40347007D01*
X137900099Y-40232993D01*
X137807007Y-40139901D01*
X137692993Y-40074075D01*
X137629409Y-40057037D01*
X138299627Y-39386818D01*
X138360950Y-39353333D01*
X138387307Y-39350499D01*
X138397872Y-39350499D01*
X138457483Y-39344091D01*
X138592331Y-39293796D01*
X138707546Y-39207546D01*
X138793796Y-39092331D01*
X138844091Y-38957483D01*
X138850500Y-38897873D01*
X138850500Y-38874500D01*
X138870185Y-38807461D01*
X138922989Y-38761706D01*
X138974500Y-38750500D01*
X143567060Y-38750500D01*
X143634099Y-38770185D01*
X143654736Y-38786814D01*
X143739708Y-38871786D01*
X143739712Y-38871790D01*
X143870814Y-38959390D01*
X143870827Y-38959397D01*
X144016498Y-39019735D01*
X144016503Y-39019737D01*
X144171153Y-39050499D01*
X144171156Y-39050500D01*
X144171158Y-39050500D01*
X144328844Y-39050500D01*
X144328845Y-39050499D01*
X144483497Y-39019737D01*
X144629179Y-38959394D01*
X144760289Y-38871789D01*
X144871789Y-38760289D01*
X144959394Y-38629179D01*
X145019737Y-38483497D01*
X145050500Y-38328842D01*
X145050500Y-38171158D01*
X145050500Y-38171155D01*
X145050499Y-38171153D01*
X145019738Y-38016510D01*
X145019737Y-38016503D01*
X145019735Y-38016498D01*
X144959397Y-37870827D01*
X144959390Y-37870814D01*
X144871789Y-37739711D01*
X144871786Y-37739707D01*
X144760292Y-37628213D01*
X144760288Y-37628210D01*
X144629185Y-37540609D01*
X144629180Y-37540607D01*
X144629179Y-37540606D01*
X144605519Y-37530805D01*
X144565295Y-37503928D01*
X144478416Y-37417049D01*
X144478415Y-37417048D01*
X144478414Y-37417047D01*
X144355501Y-37334919D01*
X144355488Y-37334912D01*
X144218917Y-37278343D01*
X144218907Y-37278340D01*
X144073920Y-37249500D01*
X144073918Y-37249500D01*
X138974499Y-37249500D01*
X138907460Y-37229815D01*
X138861705Y-37177011D01*
X138850499Y-37125500D01*
X138850499Y-37102129D01*
X138850498Y-37102123D01*
X138850497Y-37102116D01*
X138844091Y-37042517D01*
X138793796Y-36907669D01*
X138793795Y-36907668D01*
X138793793Y-36907664D01*
X138707547Y-36792455D01*
X138707544Y-36792452D01*
X138592335Y-36706206D01*
X138592328Y-36706202D01*
X138457482Y-36655908D01*
X138457483Y-36655908D01*
X138397883Y-36649501D01*
X138397881Y-36649500D01*
X138397873Y-36649500D01*
X138397864Y-36649500D01*
X136602129Y-36649500D01*
X136602123Y-36649501D01*
X136542516Y-36655908D01*
X136407671Y-36706202D01*
X136407664Y-36706206D01*
X136292455Y-36792452D01*
X136292452Y-36792455D01*
X136206206Y-36907664D01*
X136206202Y-36907671D01*
X136155908Y-37042517D01*
X136149501Y-37102116D01*
X136149501Y-37102123D01*
X136149500Y-37102135D01*
X129750500Y-37102135D01*
X129750500Y-35862229D01*
X129770185Y-35795190D01*
X129786819Y-35774548D01*
X134524548Y-31036819D01*
X134585871Y-31003334D01*
X134612229Y-31000500D01*
X166887770Y-31000500D01*
X166954809Y-31020185D01*
X166975451Y-31036819D01*
X194213181Y-58274548D01*
X194246666Y-58335871D01*
X194249500Y-58362229D01*
X194249500Y-61387770D01*
X194229815Y-61454809D01*
X194213181Y-61475451D01*
X192975451Y-62713181D01*
X192914128Y-62746666D01*
X192887770Y-62749500D01*
X191724499Y-62749500D01*
X191657460Y-62729815D01*
X191611705Y-62677011D01*
X191600499Y-62625500D01*
X191600499Y-62292129D01*
X191600498Y-62292123D01*
X191600497Y-62292116D01*
X191594091Y-62232517D01*
X191592561Y-62228416D01*
X191543797Y-62097671D01*
X191543793Y-62097664D01*
X191457547Y-61982455D01*
X191457544Y-61982452D01*
X191342335Y-61896206D01*
X191342328Y-61896202D01*
X191207482Y-61845908D01*
X191207483Y-61845908D01*
X191147883Y-61839501D01*
X191147881Y-61839500D01*
X191147873Y-61839500D01*
X191147864Y-61839500D01*
X188852129Y-61839500D01*
X188852123Y-61839501D01*
X188792516Y-61845908D01*
X188657671Y-61896202D01*
X188657664Y-61896206D01*
X188542455Y-61982452D01*
X188542452Y-61982455D01*
X188456206Y-62097664D01*
X188456202Y-62097671D01*
X188405908Y-62232517D01*
X188399501Y-62292116D01*
X188399501Y-62292123D01*
X188399500Y-62292135D01*
X188399500Y-64587870D01*
X188399501Y-64587876D01*
X188405908Y-64647483D01*
X188456202Y-64782328D01*
X188456206Y-64782335D01*
X188542452Y-64897544D01*
X188542455Y-64897547D01*
X188657664Y-64983793D01*
X188657671Y-64983797D01*
X188792517Y-65034091D01*
X188792516Y-65034091D01*
X188799444Y-65034835D01*
X188852127Y-65040500D01*
X191147872Y-65040499D01*
X191207483Y-65034091D01*
X191342331Y-64983796D01*
X191457546Y-64897546D01*
X191543796Y-64782331D01*
X191594091Y-64647483D01*
X191600500Y-64587873D01*
X191600500Y-64374500D01*
X191620185Y-64307461D01*
X191672989Y-64261706D01*
X191724500Y-64250500D01*
X193323920Y-64250500D01*
X193421462Y-64231096D01*
X193468913Y-64221658D01*
X193605495Y-64165084D01*
X193654729Y-64132186D01*
X193728416Y-64082952D01*
X195582952Y-62228416D01*
X195642375Y-62139481D01*
X195665084Y-62105495D01*
X195700705Y-62019499D01*
X195721659Y-61968912D01*
X195750500Y-61823917D01*
X195750500Y-61676082D01*
X195750500Y-57926082D01*
X195750500Y-57926079D01*
X195721659Y-57781092D01*
X195721658Y-57781091D01*
X195721658Y-57781087D01*
X195721656Y-57781082D01*
X195665087Y-57644511D01*
X195665080Y-57644498D01*
X195582952Y-57521585D01*
X195582951Y-57521584D01*
X195478416Y-57417049D01*
X188582951Y-50521584D01*
X167728421Y-29667052D01*
X167728414Y-29667046D01*
X167654729Y-29617812D01*
X167654729Y-29617813D01*
X167605491Y-29584913D01*
X167468917Y-29528343D01*
X167468907Y-29528340D01*
X167323920Y-29499500D01*
X167323918Y-29499500D01*
X134323917Y-29499500D01*
X134176082Y-29499500D01*
X134176080Y-29499500D01*
X134031092Y-29528340D01*
X134031082Y-29528343D01*
X133894511Y-29584912D01*
X133894498Y-29584919D01*
X133771584Y-29667048D01*
X133771580Y-29667051D01*
X128417052Y-35021578D01*
X128417049Y-35021581D01*
X128382080Y-35073916D01*
X128382081Y-35073917D01*
X128334913Y-35144508D01*
X128278343Y-35281082D01*
X128278340Y-35281092D01*
X128249500Y-35426079D01*
X128249500Y-35426082D01*
X128249500Y-43823918D01*
X128249500Y-43823920D01*
X128249499Y-43823920D01*
X128278340Y-43968907D01*
X128278343Y-43968917D01*
X128334914Y-44105492D01*
X128367812Y-44154727D01*
X128367813Y-44154730D01*
X128417046Y-44228414D01*
X128417052Y-44228421D01*
X135463181Y-51274548D01*
X135496666Y-51335871D01*
X135499500Y-51362229D01*
X135499500Y-52076327D01*
X135479815Y-52143366D01*
X135427011Y-52189121D01*
X135357853Y-52199065D01*
X135294297Y-52170040D01*
X135265015Y-52132622D01*
X135261636Y-52125991D01*
X135232287Y-52068390D01*
X135224556Y-52057749D01*
X135111971Y-51902786D01*
X134967213Y-51758028D01*
X134801613Y-51637715D01*
X134801612Y-51637714D01*
X134801610Y-51637713D01*
X134744653Y-51608691D01*
X134619223Y-51544781D01*
X134424534Y-51481522D01*
X134249995Y-51453878D01*
X134222352Y-51449500D01*
X134017648Y-51449500D01*
X133961971Y-51458318D01*
X133892678Y-51449363D01*
X133854893Y-51423526D01*
X126036819Y-43605451D01*
X126003334Y-43544128D01*
X126000500Y-43517770D01*
X126000500Y-35362229D01*
X126020185Y-35295190D01*
X126036819Y-35274548D01*
X133524548Y-27786819D01*
X133585871Y-27753334D01*
X133612229Y-27750500D01*
X166887770Y-27750500D01*
X166954809Y-27770185D01*
X166975451Y-27786819D01*
X196713181Y-57524548D01*
X196746666Y-57585871D01*
X196749500Y-57612229D01*
X196749500Y-75387769D01*
X196729815Y-75454808D01*
X196713181Y-75475450D01*
X189975449Y-82213181D01*
X189914126Y-82246666D01*
X189887768Y-82249500D01*
X188952129Y-82249500D01*
X188952123Y-82249501D01*
X188892516Y-82255908D01*
X188757671Y-82306202D01*
X188757664Y-82306206D01*
X188642455Y-82392452D01*
X188642452Y-82392455D01*
X188556206Y-82507664D01*
X188556202Y-82507671D01*
X188505908Y-82642517D01*
X188499501Y-82702116D01*
X188499500Y-82702135D01*
X188499500Y-84297870D01*
X188499501Y-84297876D01*
X188505908Y-84357483D01*
X188556202Y-84492328D01*
X188556206Y-84492335D01*
X188642452Y-84607544D01*
X188642455Y-84607547D01*
X188757664Y-84693793D01*
X188757671Y-84693797D01*
X188892517Y-84744091D01*
X188892516Y-84744091D01*
X188899444Y-84744835D01*
X188952127Y-84750500D01*
X189015733Y-84750499D01*
X189082770Y-84770183D01*
X189128526Y-84822986D01*
X189138470Y-84892144D01*
X189109446Y-84955700D01*
X189088619Y-84974816D01*
X188935354Y-85086171D01*
X188796174Y-85225351D01*
X188796174Y-85225352D01*
X188796172Y-85225354D01*
X188680477Y-85384594D01*
X188677722Y-85388386D01*
X188622392Y-85431051D01*
X188577404Y-85439500D01*
X187046670Y-85439500D01*
X187046654Y-85439499D01*
X187039058Y-85439499D01*
X186880943Y-85439499D01*
X186728215Y-85480423D01*
X186728213Y-85480423D01*
X186728213Y-85480424D01*
X186591281Y-85559482D01*
X185019481Y-87131282D01*
X185019480Y-87131284D01*
X184980452Y-87198884D01*
X184969361Y-87218094D01*
X184969359Y-87218096D01*
X184940425Y-87268209D01*
X184940424Y-87268210D01*
X184930649Y-87304690D01*
X184899499Y-87420943D01*
X184899499Y-87420945D01*
X184899499Y-87589046D01*
X184899500Y-87589059D01*
X184899500Y-103449903D01*
X184879815Y-103516942D01*
X184863181Y-103537584D01*
X181287584Y-107113181D01*
X181226261Y-107146666D01*
X181199903Y-107149500D01*
X156800097Y-107149500D01*
X156733058Y-107129815D01*
X156712416Y-107113181D01*
X152536819Y-102937584D01*
X152503334Y-102876261D01*
X152500500Y-102849903D01*
X152500500Y-102239601D01*
X152520185Y-102172562D01*
X152568206Y-102129116D01*
X152581610Y-102122287D01*
X152747219Y-102001966D01*
X152891966Y-101857219D01*
X152891968Y-101857215D01*
X152891971Y-101857213D01*
X153012284Y-101691614D01*
X153012286Y-101691611D01*
X153012287Y-101691610D01*
X153059516Y-101598917D01*
X153107489Y-101548123D01*
X153175310Y-101531328D01*
X153241445Y-101553865D01*
X153280485Y-101598919D01*
X153327715Y-101691614D01*
X153448028Y-101857213D01*
X153592786Y-102001971D01*
X153719416Y-102093971D01*
X153758390Y-102122287D01*
X153839499Y-102163614D01*
X153940776Y-102215218D01*
X153940778Y-102215218D01*
X153940781Y-102215220D01*
X153970838Y-102224986D01*
X154135465Y-102278477D01*
X154236557Y-102294488D01*
X154337648Y-102310500D01*
X154337649Y-102310500D01*
X154542351Y-102310500D01*
X154542352Y-102310500D01*
X154744534Y-102278477D01*
X154939219Y-102215220D01*
X155121610Y-102122287D01*
X155239018Y-102036986D01*
X155287213Y-102001971D01*
X155287215Y-102001968D01*
X155287219Y-102001966D01*
X155431966Y-101857219D01*
X155431968Y-101857215D01*
X155431971Y-101857213D01*
X155552284Y-101691614D01*
X155552286Y-101691611D01*
X155552287Y-101691610D01*
X155599516Y-101598917D01*
X155647489Y-101548123D01*
X155715310Y-101531328D01*
X155781445Y-101553865D01*
X155820485Y-101598919D01*
X155867715Y-101691614D01*
X155988028Y-101857213D01*
X155988034Y-101857219D01*
X156132781Y-102001966D01*
X156298390Y-102122287D01*
X156311793Y-102129116D01*
X156362589Y-102177088D01*
X156379500Y-102239601D01*
X156379500Y-103393330D01*
X156379499Y-103393348D01*
X156379499Y-103559054D01*
X156379498Y-103559054D01*
X156420423Y-103711786D01*
X156420424Y-103711787D01*
X156442775Y-103750500D01*
X156499480Y-103848716D01*
X156499482Y-103848718D01*
X156618349Y-103967585D01*
X156618354Y-103967589D01*
X158131284Y-105480520D01*
X158131286Y-105480521D01*
X158131290Y-105480524D01*
X158268209Y-105559573D01*
X158268216Y-105559577D01*
X158420943Y-105600501D01*
X158420945Y-105600501D01*
X158586654Y-105600501D01*
X158586670Y-105600500D01*
X177913331Y-105600500D01*
X177913347Y-105600501D01*
X177920943Y-105600501D01*
X178079054Y-105600501D01*
X178079057Y-105600501D01*
X178231785Y-105559577D01*
X178281904Y-105530639D01*
X178368716Y-105480520D01*
X178480520Y-105368716D01*
X178480520Y-105368714D01*
X178490728Y-105358507D01*
X178490730Y-105358504D01*
X181108506Y-102740728D01*
X181108511Y-102740724D01*
X181118714Y-102730520D01*
X181118716Y-102730520D01*
X181230520Y-102618716D01*
X181286483Y-102521784D01*
X181309577Y-102481785D01*
X181350500Y-102329058D01*
X181350500Y-102170943D01*
X181350500Y-77880097D01*
X181370185Y-77813058D01*
X181386819Y-77792416D01*
X183042416Y-76136819D01*
X183103739Y-76103334D01*
X183130097Y-76100500D01*
X190163331Y-76100500D01*
X190163347Y-76100501D01*
X190170943Y-76100501D01*
X190329054Y-76100501D01*
X190329057Y-76100501D01*
X190481785Y-76059577D01*
X190531904Y-76030639D01*
X190618716Y-75980520D01*
X190730520Y-75868716D01*
X190730520Y-75868714D01*
X190740728Y-75858507D01*
X190740730Y-75858504D01*
X194108506Y-72490728D01*
X194108511Y-72490724D01*
X194118714Y-72480520D01*
X194118716Y-72480520D01*
X194230520Y-72368716D01*
X194309577Y-72231784D01*
X194350500Y-72079057D01*
X194350500Y-69839059D01*
X194350501Y-69839046D01*
X194350501Y-69670945D01*
X194350501Y-69670943D01*
X194309577Y-69518215D01*
X194280639Y-69468095D01*
X194230520Y-69381284D01*
X194118716Y-69269480D01*
X194118715Y-69269479D01*
X194114385Y-69265149D01*
X194114374Y-69265139D01*
X193067590Y-68218355D01*
X193067588Y-68218352D01*
X192948717Y-68099481D01*
X192948716Y-68099480D01*
X192856234Y-68046086D01*
X192811785Y-68020423D01*
X192659057Y-67979499D01*
X192500943Y-67979499D01*
X192493347Y-67979499D01*
X192493331Y-67979500D01*
X191316290Y-67979500D01*
X191249251Y-67959815D01*
X191205805Y-67911795D01*
X191155048Y-67812179D01*
X191030109Y-67640213D01*
X190879786Y-67489890D01*
X190707820Y-67364951D01*
X190518414Y-67268444D01*
X190518413Y-67268443D01*
X190518412Y-67268443D01*
X190316243Y-67202754D01*
X190316241Y-67202753D01*
X190316240Y-67202753D01*
X190154957Y-67177208D01*
X190106287Y-67169500D01*
X189893713Y-67169500D01*
X189845042Y-67177208D01*
X189683760Y-67202753D01*
X189481585Y-67268444D01*
X189292179Y-67364951D01*
X189120213Y-67489890D01*
X188969890Y-67640213D01*
X188844951Y-67812179D01*
X188748444Y-68001585D01*
X188682753Y-68203760D01*
X188649500Y-68413713D01*
X188649500Y-68626286D01*
X188682753Y-68836240D01*
X188699920Y-68889074D01*
X188701915Y-68958915D01*
X188665834Y-69018748D01*
X188603133Y-69049576D01*
X188533719Y-69041611D01*
X188494308Y-69015073D01*
X181886819Y-62407584D01*
X181853334Y-62346261D01*
X181850500Y-62319903D01*
X181850500Y-49589060D01*
X181850501Y-49589047D01*
X181850501Y-49420944D01*
X181809576Y-49268214D01*
X181809573Y-49268209D01*
X181730524Y-49131290D01*
X181730518Y-49131282D01*
X179987590Y-47388355D01*
X179987588Y-47388352D01*
X179868717Y-47269481D01*
X179868716Y-47269480D01*
X179781904Y-47219360D01*
X179781904Y-47219359D01*
X179781900Y-47219358D01*
X179731785Y-47190423D01*
X179579057Y-47149499D01*
X179420943Y-47149499D01*
X179413347Y-47149499D01*
X179413331Y-47149500D01*
X151586669Y-47149500D01*
X151586653Y-47149499D01*
X151579057Y-47149499D01*
X151420943Y-47149499D01*
X151313587Y-47178265D01*
X151268210Y-47190424D01*
X151268209Y-47190425D01*
X151218096Y-47219359D01*
X151218095Y-47219360D01*
X151174689Y-47244420D01*
X151131285Y-47269479D01*
X151131282Y-47269481D01*
X148879481Y-49521282D01*
X148879480Y-49521284D01*
X148840358Y-49589047D01*
X148829361Y-49608094D01*
X148829359Y-49608096D01*
X148800425Y-49658209D01*
X148800424Y-49658210D01*
X148800423Y-49658215D01*
X148759499Y-49810943D01*
X148759499Y-49810945D01*
X148759499Y-49979046D01*
X148759500Y-49979059D01*
X148759500Y-51520397D01*
X148739815Y-51587436D01*
X148691800Y-51630879D01*
X148678389Y-51637712D01*
X148512786Y-51758028D01*
X148368028Y-51902786D01*
X148247715Y-52068386D01*
X148154781Y-52250776D01*
X148091522Y-52445465D01*
X148059500Y-52647648D01*
X148059500Y-52852351D01*
X148091522Y-53054534D01*
X148154781Y-53249223D01*
X148247715Y-53431613D01*
X148368028Y-53597213D01*
X148512786Y-53741971D01*
X148667749Y-53854556D01*
X148678390Y-53862287D01*
X148767212Y-53907544D01*
X148860776Y-53955218D01*
X148860778Y-53955218D01*
X148860781Y-53955220D01*
X148965137Y-53989127D01*
X149055465Y-54018477D01*
X149156557Y-54034488D01*
X149257648Y-54050500D01*
X149257649Y-54050500D01*
X149462351Y-54050500D01*
X149462352Y-54050500D01*
X149664534Y-54018477D01*
X149859219Y-53955220D01*
X150041610Y-53862287D01*
X150137901Y-53792328D01*
X150207213Y-53741971D01*
X150207215Y-53741968D01*
X150207219Y-53741966D01*
X150351966Y-53597219D01*
X150351968Y-53597215D01*
X150351971Y-53597213D01*
X150472284Y-53431614D01*
X150472286Y-53431611D01*
X150472287Y-53431610D01*
X150519516Y-53338917D01*
X150567489Y-53288123D01*
X150635310Y-53271328D01*
X150701445Y-53293865D01*
X150740485Y-53338919D01*
X150787715Y-53431614D01*
X150908028Y-53597213D01*
X151052786Y-53741971D01*
X151207749Y-53854556D01*
X151218390Y-53862287D01*
X151307212Y-53907544D01*
X151400776Y-53955218D01*
X151400778Y-53955218D01*
X151400781Y-53955220D01*
X151505137Y-53989127D01*
X151595465Y-54018477D01*
X151696557Y-54034488D01*
X151797648Y-54050500D01*
X151797649Y-54050500D01*
X152002351Y-54050500D01*
X152002352Y-54050500D01*
X152204534Y-54018477D01*
X152399219Y-53955220D01*
X152581610Y-53862287D01*
X152677901Y-53792328D01*
X152747213Y-53741971D01*
X152747215Y-53741968D01*
X152747219Y-53741966D01*
X152891966Y-53597219D01*
X152891968Y-53597215D01*
X152891971Y-53597213D01*
X153012284Y-53431614D01*
X153012286Y-53431611D01*
X153012287Y-53431610D01*
X153059516Y-53338917D01*
X153107489Y-53288123D01*
X153175310Y-53271328D01*
X153241445Y-53293865D01*
X153280485Y-53338919D01*
X153327715Y-53431614D01*
X153448028Y-53597213D01*
X153592786Y-53741971D01*
X153747749Y-53854556D01*
X153758390Y-53862287D01*
X153847212Y-53907544D01*
X153940776Y-53955218D01*
X153940778Y-53955218D01*
X153940781Y-53955220D01*
X154045137Y-53989127D01*
X154135465Y-54018477D01*
X154236557Y-54034488D01*
X154337648Y-54050500D01*
X154337649Y-54050500D01*
X154542351Y-54050500D01*
X154542352Y-54050500D01*
X154744534Y-54018477D01*
X154939219Y-53955220D01*
X155121610Y-53862287D01*
X155217901Y-53792328D01*
X155287213Y-53741971D01*
X155287215Y-53741968D01*
X155287219Y-53741966D01*
X155431966Y-53597219D01*
X155431968Y-53597215D01*
X155431971Y-53597213D01*
X155552284Y-53431614D01*
X155552286Y-53431611D01*
X155552287Y-53431610D01*
X155599516Y-53338917D01*
X155647489Y-53288123D01*
X155715310Y-53271328D01*
X155781445Y-53293865D01*
X155820485Y-53338919D01*
X155867715Y-53431614D01*
X155988028Y-53597213D01*
X156132786Y-53741971D01*
X156287749Y-53854556D01*
X156298390Y-53862287D01*
X156387212Y-53907544D01*
X156480776Y-53955218D01*
X156480778Y-53955218D01*
X156480781Y-53955220D01*
X156585137Y-53989127D01*
X156675465Y-54018477D01*
X156776557Y-54034488D01*
X156877648Y-54050500D01*
X156877649Y-54050500D01*
X157082351Y-54050500D01*
X157082352Y-54050500D01*
X157284534Y-54018477D01*
X157479219Y-53955220D01*
X157661610Y-53862287D01*
X157757901Y-53792328D01*
X157827213Y-53741971D01*
X157827215Y-53741968D01*
X157827219Y-53741966D01*
X157971966Y-53597219D01*
X157971968Y-53597215D01*
X157971971Y-53597213D01*
X158092284Y-53431614D01*
X158092286Y-53431611D01*
X158092287Y-53431610D01*
X158139516Y-53338917D01*
X158187489Y-53288123D01*
X158255310Y-53271328D01*
X158321445Y-53293865D01*
X158360485Y-53338919D01*
X158407715Y-53431614D01*
X158528028Y-53597213D01*
X158672786Y-53741971D01*
X158827749Y-53854556D01*
X158838390Y-53862287D01*
X158927212Y-53907544D01*
X159020776Y-53955218D01*
X159020778Y-53955218D01*
X159020781Y-53955220D01*
X159125137Y-53989127D01*
X159215465Y-54018477D01*
X159316557Y-54034488D01*
X159417648Y-54050500D01*
X159417649Y-54050500D01*
X159622351Y-54050500D01*
X159622352Y-54050500D01*
X159824534Y-54018477D01*
X160019219Y-53955220D01*
X160201610Y-53862287D01*
X160297901Y-53792328D01*
X160367213Y-53741971D01*
X160367215Y-53741968D01*
X160367219Y-53741966D01*
X160511966Y-53597219D01*
X160511968Y-53597215D01*
X160511971Y-53597213D01*
X160632284Y-53431614D01*
X160632286Y-53431611D01*
X160632287Y-53431610D01*
X160679516Y-53338917D01*
X160727489Y-53288123D01*
X160795310Y-53271328D01*
X160861445Y-53293865D01*
X160900485Y-53338919D01*
X160947715Y-53431614D01*
X161068028Y-53597213D01*
X161212786Y-53741971D01*
X161367749Y-53854556D01*
X161378390Y-53862287D01*
X161467212Y-53907544D01*
X161560776Y-53955218D01*
X161560778Y-53955218D01*
X161560781Y-53955220D01*
X161665137Y-53989127D01*
X161755465Y-54018477D01*
X161856557Y-54034488D01*
X161957648Y-54050500D01*
X161957649Y-54050500D01*
X162162351Y-54050500D01*
X162162352Y-54050500D01*
X162364534Y-54018477D01*
X162559219Y-53955220D01*
X162741610Y-53862287D01*
X162837901Y-53792328D01*
X162907213Y-53741971D01*
X162907215Y-53741968D01*
X162907219Y-53741966D01*
X163051966Y-53597219D01*
X163051968Y-53597215D01*
X163051971Y-53597213D01*
X163112670Y-53513666D01*
X163172287Y-53431610D01*
X163265220Y-53249219D01*
X163328477Y-53054534D01*
X163360500Y-52852352D01*
X163360500Y-52647648D01*
X163346144Y-52557007D01*
X163328477Y-52445465D01*
X163265218Y-52250776D01*
X163210489Y-52143366D01*
X163172287Y-52068390D01*
X163164556Y-52057749D01*
X163051971Y-51902786D01*
X162907213Y-51758028D01*
X162741613Y-51637715D01*
X162741612Y-51637714D01*
X162741610Y-51637713D01*
X162684653Y-51608691D01*
X162559223Y-51544781D01*
X162364534Y-51481522D01*
X162189995Y-51453878D01*
X162162352Y-51449500D01*
X161957648Y-51449500D01*
X161933329Y-51453351D01*
X161755465Y-51481522D01*
X161560776Y-51544781D01*
X161378386Y-51637715D01*
X161212786Y-51758028D01*
X161068028Y-51902786D01*
X160947715Y-52068386D01*
X160900485Y-52161080D01*
X160852510Y-52211876D01*
X160784689Y-52228671D01*
X160718554Y-52206134D01*
X160679515Y-52161080D01*
X160665015Y-52132622D01*
X160632287Y-52068390D01*
X160624556Y-52057749D01*
X160511971Y-51902786D01*
X160367213Y-51758028D01*
X160201613Y-51637715D01*
X160201612Y-51637714D01*
X160201610Y-51637713D01*
X160144653Y-51608691D01*
X160019223Y-51544781D01*
X159824534Y-51481522D01*
X159649995Y-51453878D01*
X159622352Y-51449500D01*
X159417648Y-51449500D01*
X159393329Y-51453351D01*
X159215465Y-51481522D01*
X159020776Y-51544781D01*
X158838386Y-51637715D01*
X158672786Y-51758028D01*
X158528028Y-51902786D01*
X158407715Y-52068386D01*
X158360485Y-52161080D01*
X158312510Y-52211876D01*
X158244689Y-52228671D01*
X158178554Y-52206134D01*
X158139515Y-52161080D01*
X158125015Y-52132622D01*
X158092287Y-52068390D01*
X158084556Y-52057749D01*
X157971971Y-51902786D01*
X157827213Y-51758028D01*
X157661613Y-51637715D01*
X157661612Y-51637714D01*
X157661610Y-51637713D01*
X157604653Y-51608691D01*
X157479223Y-51544781D01*
X157284534Y-51481522D01*
X157109995Y-51453878D01*
X157082352Y-51449500D01*
X156877648Y-51449500D01*
X156853329Y-51453351D01*
X156675465Y-51481522D01*
X156480776Y-51544781D01*
X156298386Y-51637715D01*
X156132786Y-51758028D01*
X155988028Y-51902786D01*
X155867715Y-52068386D01*
X155820485Y-52161080D01*
X155772510Y-52211876D01*
X155704689Y-52228671D01*
X155638554Y-52206134D01*
X155599515Y-52161080D01*
X155585015Y-52132622D01*
X155552287Y-52068390D01*
X155544556Y-52057749D01*
X155431971Y-51902786D01*
X155287213Y-51758028D01*
X155121613Y-51637715D01*
X155121612Y-51637714D01*
X155121610Y-51637713D01*
X155064653Y-51608691D01*
X154939223Y-51544781D01*
X154744534Y-51481522D01*
X154569995Y-51453878D01*
X154542352Y-51449500D01*
X154337648Y-51449500D01*
X154313329Y-51453351D01*
X154135465Y-51481522D01*
X153940776Y-51544781D01*
X153758386Y-51637715D01*
X153592786Y-51758028D01*
X153448028Y-51902786D01*
X153327715Y-52068386D01*
X153280485Y-52161080D01*
X153232510Y-52211876D01*
X153164689Y-52228671D01*
X153098554Y-52206134D01*
X153059515Y-52161080D01*
X153045015Y-52132622D01*
X153012287Y-52068390D01*
X153004556Y-52057749D01*
X152891971Y-51902786D01*
X152747213Y-51758028D01*
X152581613Y-51637715D01*
X152581612Y-51637714D01*
X152581610Y-51637713D01*
X152524653Y-51608691D01*
X152399223Y-51544781D01*
X152204534Y-51481522D01*
X152029995Y-51453878D01*
X152002352Y-51449500D01*
X151797648Y-51449500D01*
X151773329Y-51453351D01*
X151595465Y-51481522D01*
X151400776Y-51544781D01*
X151218386Y-51637715D01*
X151052786Y-51758028D01*
X150908028Y-51902786D01*
X150787715Y-52068386D01*
X150740485Y-52161080D01*
X150692510Y-52211876D01*
X150624689Y-52228671D01*
X150558554Y-52206134D01*
X150519515Y-52161080D01*
X150505015Y-52132622D01*
X150472287Y-52068390D01*
X150464556Y-52057749D01*
X150351971Y-51902786D01*
X150207213Y-51758028D01*
X150041610Y-51637712D01*
X150028200Y-51630879D01*
X149977406Y-51582903D01*
X149960500Y-51520397D01*
X149960500Y-50190097D01*
X149980185Y-50123058D01*
X149996819Y-50102416D01*
X151712416Y-48386819D01*
X151773739Y-48353334D01*
X151800097Y-48350500D01*
X179199903Y-48350500D01*
X179266942Y-48370185D01*
X179287584Y-48386819D01*
X180613181Y-49712416D01*
X180646666Y-49773739D01*
X180649500Y-49800097D01*
X180649500Y-62533330D01*
X180649499Y-62533348D01*
X180649499Y-62699054D01*
X180649498Y-62699054D01*
X180690423Y-62851785D01*
X180719358Y-62901900D01*
X180719359Y-62901904D01*
X180719360Y-62901904D01*
X180769479Y-62988714D01*
X180769481Y-62988717D01*
X180888349Y-63107585D01*
X180888355Y-63107590D01*
X188616443Y-70835678D01*
X188649928Y-70897001D01*
X188651236Y-70942754D01*
X188649500Y-70953716D01*
X188649500Y-71166286D01*
X188682753Y-71376239D01*
X188748444Y-71578414D01*
X188844951Y-71767820D01*
X188969890Y-71939786D01*
X189120213Y-72090109D01*
X189292179Y-72215048D01*
X189292181Y-72215049D01*
X189292184Y-72215051D01*
X189481588Y-72311557D01*
X189683757Y-72377246D01*
X189893713Y-72410500D01*
X189893714Y-72410500D01*
X190106286Y-72410500D01*
X190106287Y-72410500D01*
X190316243Y-72377246D01*
X190518412Y-72311557D01*
X190707816Y-72215051D01*
X190729789Y-72199086D01*
X190879786Y-72090109D01*
X190879788Y-72090106D01*
X190879792Y-72090104D01*
X191030104Y-71939792D01*
X191030106Y-71939788D01*
X191030109Y-71939786D01*
X191155048Y-71767820D01*
X191155047Y-71767820D01*
X191155051Y-71767816D01*
X191251557Y-71578412D01*
X191317246Y-71376243D01*
X191350500Y-71166287D01*
X191350500Y-70953713D01*
X191317246Y-70743757D01*
X191251557Y-70541588D01*
X191155051Y-70352184D01*
X191155049Y-70352181D01*
X191155048Y-70352179D01*
X191030109Y-70180213D01*
X190879786Y-70029890D01*
X190707820Y-69904951D01*
X190707115Y-69904591D01*
X190699054Y-69900485D01*
X190648259Y-69852512D01*
X190631463Y-69784692D01*
X190653999Y-69718556D01*
X190699054Y-69679515D01*
X190707816Y-69675051D01*
X190729789Y-69659086D01*
X190879786Y-69550109D01*
X190879788Y-69550106D01*
X190879792Y-69550104D01*
X191030104Y-69399792D01*
X191124781Y-69269480D01*
X191152292Y-69231615D01*
X191207622Y-69188949D01*
X191252610Y-69180500D01*
X192279903Y-69180500D01*
X192346942Y-69200185D01*
X192367584Y-69216819D01*
X193113181Y-69962416D01*
X193146666Y-70023739D01*
X193149500Y-70050097D01*
X193149500Y-71699903D01*
X193129815Y-71766942D01*
X193113181Y-71787584D01*
X190037584Y-74863181D01*
X189976261Y-74896666D01*
X189949903Y-74899500D01*
X182909057Y-74899500D01*
X182750942Y-74899500D01*
X182598215Y-74940423D01*
X182598214Y-74940423D01*
X182598212Y-74940424D01*
X182598209Y-74940425D01*
X182548096Y-74969359D01*
X182548095Y-74969360D01*
X182504689Y-74994420D01*
X182461285Y-75019479D01*
X182461282Y-75019481D01*
X180269481Y-77211282D01*
X180269479Y-77211285D01*
X180219361Y-77298094D01*
X180219359Y-77298096D01*
X180190425Y-77348209D01*
X180190424Y-77348210D01*
X180190423Y-77348215D01*
X180149499Y-77500943D01*
X180149499Y-77500945D01*
X180149499Y-77669046D01*
X180149500Y-77669059D01*
X180149500Y-101949903D01*
X180129815Y-102016942D01*
X180113181Y-102037584D01*
X177787584Y-104363181D01*
X177726261Y-104396666D01*
X177699903Y-104399500D01*
X158800098Y-104399500D01*
X158733059Y-104379815D01*
X158712417Y-104363181D01*
X157616819Y-103267583D01*
X157583334Y-103206260D01*
X157580500Y-103179902D01*
X157580500Y-102239601D01*
X157600185Y-102172562D01*
X157648206Y-102129116D01*
X157661610Y-102122287D01*
X157827219Y-102001966D01*
X157971966Y-101857219D01*
X157971968Y-101857215D01*
X157971971Y-101857213D01*
X158092284Y-101691614D01*
X158092286Y-101691611D01*
X158092287Y-101691610D01*
X158139516Y-101598917D01*
X158187489Y-101548123D01*
X158255310Y-101531328D01*
X158321445Y-101553865D01*
X158360485Y-101598919D01*
X158407715Y-101691614D01*
X158528028Y-101857213D01*
X158672786Y-102001971D01*
X158799416Y-102093971D01*
X158838390Y-102122287D01*
X158919499Y-102163614D01*
X159020776Y-102215218D01*
X159020778Y-102215218D01*
X159020781Y-102215220D01*
X159050838Y-102224986D01*
X159215465Y-102278477D01*
X159316557Y-102294488D01*
X159417648Y-102310500D01*
X159417649Y-102310500D01*
X159622351Y-102310500D01*
X159622352Y-102310500D01*
X159824534Y-102278477D01*
X160019219Y-102215220D01*
X160201610Y-102122287D01*
X160319018Y-102036986D01*
X160367213Y-102001971D01*
X160367215Y-102001968D01*
X160367219Y-102001966D01*
X160511966Y-101857219D01*
X160511968Y-101857215D01*
X160511971Y-101857213D01*
X160632284Y-101691614D01*
X160632286Y-101691611D01*
X160632287Y-101691610D01*
X160679516Y-101598917D01*
X160727489Y-101548123D01*
X160795310Y-101531328D01*
X160861445Y-101553865D01*
X160900485Y-101598919D01*
X160947715Y-101691614D01*
X161068028Y-101857213D01*
X161212786Y-102001971D01*
X161339416Y-102093971D01*
X161378390Y-102122287D01*
X161459499Y-102163614D01*
X161560776Y-102215218D01*
X161560778Y-102215218D01*
X161560781Y-102215220D01*
X161590838Y-102224986D01*
X161755465Y-102278477D01*
X161856557Y-102294488D01*
X161957648Y-102310500D01*
X161957649Y-102310500D01*
X162162351Y-102310500D01*
X162162352Y-102310500D01*
X162364534Y-102278477D01*
X162559219Y-102215220D01*
X162741610Y-102122287D01*
X162859018Y-102036986D01*
X162907213Y-102001971D01*
X162907215Y-102001968D01*
X162907219Y-102001966D01*
X163051966Y-101857219D01*
X163051968Y-101857215D01*
X163051971Y-101857213D01*
X163104732Y-101784590D01*
X163172287Y-101691610D01*
X163265220Y-101509219D01*
X163328477Y-101314534D01*
X163360500Y-101112352D01*
X163360500Y-100907648D01*
X163328477Y-100705466D01*
X163327673Y-100702993D01*
X163265218Y-100510776D01*
X163172419Y-100328650D01*
X163172287Y-100328390D01*
X163164556Y-100317749D01*
X163051971Y-100162786D01*
X162907213Y-100018028D01*
X162741613Y-99897715D01*
X162741612Y-99897714D01*
X162741610Y-99897713D01*
X162684653Y-99868691D01*
X162559223Y-99804781D01*
X162364534Y-99741522D01*
X162189995Y-99713878D01*
X162162352Y-99709500D01*
X161957648Y-99709500D01*
X161933329Y-99713351D01*
X161755465Y-99741522D01*
X161560776Y-99804781D01*
X161378386Y-99897715D01*
X161212786Y-100018028D01*
X161068028Y-100162786D01*
X160947715Y-100328386D01*
X160900485Y-100421080D01*
X160852510Y-100471876D01*
X160784689Y-100488671D01*
X160718554Y-100466134D01*
X160679515Y-100421080D01*
X160632419Y-100328650D01*
X160632287Y-100328390D01*
X160624556Y-100317749D01*
X160511971Y-100162786D01*
X160367213Y-100018028D01*
X160201613Y-99897715D01*
X160201612Y-99897714D01*
X160201610Y-99897713D01*
X160144653Y-99868691D01*
X160019223Y-99804781D01*
X159824534Y-99741522D01*
X159649995Y-99713878D01*
X159622352Y-99709500D01*
X159417648Y-99709500D01*
X159393329Y-99713351D01*
X159215465Y-99741522D01*
X159020776Y-99804781D01*
X158838386Y-99897715D01*
X158672786Y-100018028D01*
X158528028Y-100162786D01*
X158407715Y-100328386D01*
X158360485Y-100421080D01*
X158312510Y-100471876D01*
X158244689Y-100488671D01*
X158178554Y-100466134D01*
X158139515Y-100421080D01*
X158092419Y-100328650D01*
X158092287Y-100328390D01*
X158084556Y-100317749D01*
X157971971Y-100162786D01*
X157827213Y-100018028D01*
X157661613Y-99897715D01*
X157661612Y-99897714D01*
X157661610Y-99897713D01*
X157604653Y-99868691D01*
X157479223Y-99804781D01*
X157284534Y-99741522D01*
X157109995Y-99713878D01*
X157082352Y-99709500D01*
X156877648Y-99709500D01*
X156853329Y-99713351D01*
X156675465Y-99741522D01*
X156480776Y-99804781D01*
X156298386Y-99897715D01*
X156132786Y-100018028D01*
X155988028Y-100162786D01*
X155867715Y-100328386D01*
X155820485Y-100421080D01*
X155772510Y-100471876D01*
X155704689Y-100488671D01*
X155638554Y-100466134D01*
X155599515Y-100421080D01*
X155552419Y-100328650D01*
X155552287Y-100328390D01*
X155544556Y-100317749D01*
X155431971Y-100162786D01*
X155287213Y-100018028D01*
X155121613Y-99897715D01*
X155121612Y-99897714D01*
X155121610Y-99897713D01*
X155064653Y-99868691D01*
X154939223Y-99804781D01*
X154744534Y-99741522D01*
X154569995Y-99713878D01*
X154542352Y-99709500D01*
X154337648Y-99709500D01*
X154313329Y-99713351D01*
X154135465Y-99741522D01*
X153940776Y-99804781D01*
X153758386Y-99897715D01*
X153592786Y-100018028D01*
X153448028Y-100162786D01*
X153327715Y-100328386D01*
X153280485Y-100421080D01*
X153232510Y-100471876D01*
X153164689Y-100488671D01*
X153098554Y-100466134D01*
X153059515Y-100421080D01*
X153012419Y-100328650D01*
X153012287Y-100328390D01*
X153004556Y-100317749D01*
X152891971Y-100162786D01*
X152747213Y-100018028D01*
X152581613Y-99897715D01*
X152581612Y-99897714D01*
X152581610Y-99897713D01*
X152524653Y-99868691D01*
X152399223Y-99804781D01*
X152204534Y-99741522D01*
X152029995Y-99713878D01*
X152002352Y-99709500D01*
X151797648Y-99709500D01*
X151773329Y-99713351D01*
X151595465Y-99741522D01*
X151400776Y-99804781D01*
X151218386Y-99897715D01*
X151052786Y-100018028D01*
X150908028Y-100162786D01*
X150787715Y-100328386D01*
X150740485Y-100421080D01*
X150692510Y-100471876D01*
X150624689Y-100488671D01*
X150558554Y-100466134D01*
X150519515Y-100421080D01*
X150472419Y-100328650D01*
X150472287Y-100328390D01*
X150464556Y-100317749D01*
X150351971Y-100162786D01*
X150207213Y-100018028D01*
X150041613Y-99897715D01*
X150041612Y-99897714D01*
X150041610Y-99897713D01*
X149984653Y-99868691D01*
X149859223Y-99804781D01*
X149664534Y-99741522D01*
X149489995Y-99713878D01*
X149462352Y-99709500D01*
X149257648Y-99709500D01*
X149233329Y-99713351D01*
X149055465Y-99741522D01*
X148860776Y-99804781D01*
X148678386Y-99897715D01*
X148512786Y-100018028D01*
X148368028Y-100162786D01*
X148247715Y-100328386D01*
X148200485Y-100421080D01*
X148152510Y-100471876D01*
X148084689Y-100488671D01*
X148018554Y-100466134D01*
X147979515Y-100421080D01*
X147932419Y-100328650D01*
X147932287Y-100328390D01*
X147924556Y-100317749D01*
X147811971Y-100162786D01*
X147667213Y-100018028D01*
X147501613Y-99897715D01*
X147501612Y-99897714D01*
X147501610Y-99897713D01*
X147444653Y-99868691D01*
X147319223Y-99804781D01*
X147124534Y-99741522D01*
X146949995Y-99713878D01*
X146922352Y-99709500D01*
X146717648Y-99709500D01*
X146693329Y-99713351D01*
X146515465Y-99741522D01*
X146320776Y-99804781D01*
X146138386Y-99897715D01*
X145972786Y-100018028D01*
X145828028Y-100162786D01*
X145707715Y-100328386D01*
X145660485Y-100421080D01*
X145612510Y-100471876D01*
X145544689Y-100488671D01*
X145478554Y-100466134D01*
X145439515Y-100421080D01*
X145392419Y-100328650D01*
X145392287Y-100328390D01*
X145384556Y-100317749D01*
X145271971Y-100162786D01*
X145127213Y-100018028D01*
X144961613Y-99897715D01*
X144961612Y-99897714D01*
X144961610Y-99897713D01*
X144904653Y-99868691D01*
X144779223Y-99804781D01*
X144584534Y-99741522D01*
X144409995Y-99713878D01*
X144382352Y-99709500D01*
X144177648Y-99709500D01*
X144153329Y-99713351D01*
X143975465Y-99741522D01*
X143780776Y-99804781D01*
X143598386Y-99897715D01*
X143432786Y-100018028D01*
X143288028Y-100162786D01*
X143167715Y-100328386D01*
X143074781Y-100510776D01*
X143011522Y-100705465D01*
X142979500Y-100907648D01*
X142979500Y-101112351D01*
X143011522Y-101314534D01*
X143074781Y-101509223D01*
X143167715Y-101691613D01*
X143288028Y-101857213D01*
X143432786Y-102001971D01*
X143559416Y-102093971D01*
X143598390Y-102122287D01*
X143679499Y-102163614D01*
X143780776Y-102215218D01*
X143780778Y-102215218D01*
X143780781Y-102215220D01*
X143810838Y-102224986D01*
X143975465Y-102278477D01*
X144076557Y-102294488D01*
X144177648Y-102310500D01*
X144177649Y-102310500D01*
X144382351Y-102310500D01*
X144382352Y-102310500D01*
X144584534Y-102278477D01*
X144779219Y-102215220D01*
X144961610Y-102122287D01*
X145079018Y-102036986D01*
X145127213Y-102001971D01*
X145127215Y-102001968D01*
X145127219Y-102001966D01*
X145271966Y-101857219D01*
X145271968Y-101857215D01*
X145271971Y-101857213D01*
X145392284Y-101691614D01*
X145392286Y-101691611D01*
X145392287Y-101691610D01*
X145439516Y-101598917D01*
X145487489Y-101548123D01*
X145555310Y-101531328D01*
X145621445Y-101553865D01*
X145660485Y-101598919D01*
X145707715Y-101691614D01*
X145828028Y-101857213D01*
X145972786Y-102001971D01*
X146099416Y-102093971D01*
X146138390Y-102122287D01*
X146219499Y-102163614D01*
X146320776Y-102215218D01*
X146320778Y-102215218D01*
X146320781Y-102215220D01*
X146350838Y-102224986D01*
X146515465Y-102278477D01*
X146616557Y-102294488D01*
X146717648Y-102310500D01*
X146717649Y-102310500D01*
X146922351Y-102310500D01*
X146922352Y-102310500D01*
X147124534Y-102278477D01*
X147319219Y-102215220D01*
X147501610Y-102122287D01*
X147619018Y-102036986D01*
X147667213Y-102001971D01*
X147667215Y-102001968D01*
X147667219Y-102001966D01*
X147811966Y-101857219D01*
X147811968Y-101857215D01*
X147811971Y-101857213D01*
X147932284Y-101691614D01*
X147932286Y-101691611D01*
X147932287Y-101691610D01*
X147979516Y-101598917D01*
X148027489Y-101548123D01*
X148095310Y-101531328D01*
X148161445Y-101553865D01*
X148200485Y-101598919D01*
X148247715Y-101691614D01*
X148368028Y-101857213D01*
X148512786Y-102001971D01*
X148639416Y-102093971D01*
X148678390Y-102122287D01*
X148759499Y-102163614D01*
X148860776Y-102215218D01*
X148860778Y-102215218D01*
X148860781Y-102215220D01*
X148890838Y-102224986D01*
X149055465Y-102278477D01*
X149156557Y-102294488D01*
X149257648Y-102310500D01*
X149257649Y-102310500D01*
X149462351Y-102310500D01*
X149462352Y-102310500D01*
X149664534Y-102278477D01*
X149859219Y-102215220D01*
X150041610Y-102122287D01*
X150159018Y-102036986D01*
X150207213Y-102001971D01*
X150207215Y-102001968D01*
X150207219Y-102001966D01*
X150351966Y-101857219D01*
X150351968Y-101857215D01*
X150351971Y-101857213D01*
X150472284Y-101691614D01*
X150472286Y-101691611D01*
X150472287Y-101691610D01*
X150519516Y-101598917D01*
X150567489Y-101548123D01*
X150635310Y-101531328D01*
X150701445Y-101553865D01*
X150740485Y-101598919D01*
X150787715Y-101691614D01*
X150908028Y-101857213D01*
X150908034Y-101857219D01*
X151052781Y-102001966D01*
X151218390Y-102122287D01*
X151231793Y-102129116D01*
X151282589Y-102177088D01*
X151299500Y-102239601D01*
X151299500Y-103063330D01*
X151299499Y-103063348D01*
X151299499Y-103229054D01*
X151299498Y-103229054D01*
X151340423Y-103381787D01*
X151340424Y-103381788D01*
X151351482Y-103400940D01*
X151351484Y-103400943D01*
X151419477Y-103518712D01*
X151419481Y-103518717D01*
X151538349Y-103637585D01*
X151538355Y-103637590D01*
X156015139Y-108114374D01*
X156015149Y-108114385D01*
X156019479Y-108118715D01*
X156019480Y-108118716D01*
X156131284Y-108230520D01*
X156131286Y-108230521D01*
X156131290Y-108230524D01*
X156268209Y-108309573D01*
X156268216Y-108309577D01*
X156380019Y-108339534D01*
X156420942Y-108350500D01*
X156420943Y-108350500D01*
X181413331Y-108350500D01*
X181413347Y-108350501D01*
X181420943Y-108350501D01*
X181579054Y-108350501D01*
X181579057Y-108350501D01*
X181731785Y-108309577D01*
X181781904Y-108280639D01*
X181868716Y-108230520D01*
X181980520Y-108118716D01*
X181980520Y-108118714D01*
X181990728Y-108108507D01*
X181990730Y-108108504D01*
X185868713Y-104230521D01*
X185868716Y-104230520D01*
X185980520Y-104118716D01*
X186030639Y-104031904D01*
X186059577Y-103981785D01*
X186100500Y-103829058D01*
X186100500Y-103670943D01*
X186100500Y-87800097D01*
X186120185Y-87733058D01*
X186136819Y-87712416D01*
X187172417Y-86676819D01*
X187233740Y-86643334D01*
X187260098Y-86640500D01*
X188577404Y-86640500D01*
X188644443Y-86660185D01*
X188677722Y-86691614D01*
X188680475Y-86695403D01*
X188680476Y-86695405D01*
X188796172Y-86854646D01*
X188935354Y-86993828D01*
X189094595Y-87109524D01*
X189137298Y-87131282D01*
X189271213Y-87199515D01*
X189322009Y-87247489D01*
X189338804Y-87315310D01*
X189316267Y-87381445D01*
X189271213Y-87420485D01*
X189094594Y-87510476D01*
X189003741Y-87576485D01*
X188935354Y-87626172D01*
X188935352Y-87626174D01*
X188935351Y-87626174D01*
X188796174Y-87765351D01*
X188796174Y-87765352D01*
X188796172Y-87765354D01*
X188770930Y-87800097D01*
X188680476Y-87924594D01*
X188591117Y-88099970D01*
X188530290Y-88287173D01*
X188499500Y-88481577D01*
X188499500Y-88678422D01*
X188530290Y-88872826D01*
X188591117Y-89060029D01*
X188680476Y-89235405D01*
X188796172Y-89394646D01*
X188935354Y-89533828D01*
X189054784Y-89620600D01*
X189094596Y-89649525D01*
X189271763Y-89739795D01*
X189322560Y-89787769D01*
X189339355Y-89855590D01*
X189316818Y-89921725D01*
X189271764Y-89960765D01*
X189094859Y-90050902D01*
X189059873Y-90076320D01*
X189059872Y-90076320D01*
X189703554Y-90720000D01*
X189697339Y-90720000D01*
X189595606Y-90747259D01*
X189504394Y-90799920D01*
X189429920Y-90874394D01*
X189377259Y-90965606D01*
X189350000Y-91067339D01*
X189350000Y-91073552D01*
X188706320Y-90429872D01*
X188706320Y-90429873D01*
X188680902Y-90464859D01*
X188680899Y-90464863D01*
X188591582Y-90640161D01*
X188530778Y-90827294D01*
X188500000Y-91021617D01*
X188500000Y-91218382D01*
X188530778Y-91412705D01*
X188591581Y-91599835D01*
X188680905Y-91775145D01*
X188706319Y-91810125D01*
X188706320Y-91810125D01*
X189350000Y-91166445D01*
X189350000Y-91172661D01*
X189377259Y-91274394D01*
X189429920Y-91365606D01*
X189504394Y-91440080D01*
X189595606Y-91492741D01*
X189697339Y-91520000D01*
X189703553Y-91520000D01*
X189059873Y-92163677D01*
X189059873Y-92163678D01*
X189094858Y-92189096D01*
X189270164Y-92278418D01*
X189457294Y-92339221D01*
X189651618Y-92370000D01*
X189848382Y-92370000D01*
X190042705Y-92339221D01*
X190229835Y-92278418D01*
X190405143Y-92189095D01*
X190440125Y-92163678D01*
X190440126Y-92163678D01*
X189796448Y-91520000D01*
X189802661Y-91520000D01*
X189904394Y-91492741D01*
X189995606Y-91440080D01*
X190070080Y-91365606D01*
X190122741Y-91274394D01*
X190150000Y-91172661D01*
X190150000Y-91166447D01*
X190793678Y-91810126D01*
X190793678Y-91810125D01*
X190819095Y-91775143D01*
X190908418Y-91599835D01*
X190969221Y-91412705D01*
X191000000Y-91218382D01*
X191000000Y-91021617D01*
X190969221Y-90827294D01*
X190908418Y-90640164D01*
X190819096Y-90464858D01*
X190793678Y-90429873D01*
X190793677Y-90429873D01*
X190150000Y-91073551D01*
X190150000Y-91067339D01*
X190122741Y-90965606D01*
X190070080Y-90874394D01*
X189995606Y-90799920D01*
X189904394Y-90747259D01*
X189802661Y-90720000D01*
X189796447Y-90720000D01*
X190440125Y-90076320D01*
X190440125Y-90076319D01*
X190405145Y-90050905D01*
X190228235Y-89960765D01*
X190177439Y-89912790D01*
X190160644Y-89844969D01*
X190183182Y-89778834D01*
X190228236Y-89739795D01*
X190230022Y-89738884D01*
X190230025Y-89738884D01*
X190405405Y-89649524D01*
X190564646Y-89533828D01*
X190703828Y-89394646D01*
X190819524Y-89235405D01*
X190908884Y-89060025D01*
X190969709Y-88872826D01*
X191000500Y-88678422D01*
X191000500Y-88481577D01*
X190969709Y-88287173D01*
X190908882Y-88099970D01*
X190819523Y-87924594D01*
X190703828Y-87765354D01*
X190564646Y-87626172D01*
X190485025Y-87568324D01*
X190405403Y-87510474D01*
X190228787Y-87420485D01*
X190177990Y-87372511D01*
X190161195Y-87304690D01*
X190183732Y-87238555D01*
X190228787Y-87199515D01*
X190405403Y-87109525D01*
X190405402Y-87109525D01*
X190405405Y-87109524D01*
X190564646Y-86993828D01*
X190703828Y-86854646D01*
X190819524Y-86695405D01*
X190908884Y-86520025D01*
X190969709Y-86332826D01*
X191000500Y-86138422D01*
X191000500Y-85941577D01*
X190969709Y-85747173D01*
X190908882Y-85559970D01*
X190843194Y-85431051D01*
X190819524Y-85384595D01*
X190703828Y-85225354D01*
X190564646Y-85086172D01*
X190411377Y-84974815D01*
X190368714Y-84919487D01*
X190362735Y-84849873D01*
X190395341Y-84788078D01*
X190456180Y-84753721D01*
X190484264Y-84750499D01*
X190547872Y-84750499D01*
X190607483Y-84744091D01*
X190742331Y-84693796D01*
X190857546Y-84607546D01*
X190943796Y-84492331D01*
X190994091Y-84357483D01*
X191000500Y-84297873D01*
X191000499Y-83362228D01*
X191020183Y-83295190D01*
X191036813Y-83274553D01*
X198082951Y-76228416D01*
X198165084Y-76105495D01*
X198221658Y-75968913D01*
X198250500Y-75823918D01*
X198250500Y-57176082D01*
X198250500Y-57176079D01*
X198221659Y-57031092D01*
X198221658Y-57031091D01*
X198221658Y-57031087D01*
X198221656Y-57031082D01*
X198165087Y-56894511D01*
X198165080Y-56894498D01*
X198082952Y-56771585D01*
X198082951Y-56771584D01*
X197978416Y-56667049D01*
X190442649Y-49131282D01*
X167728421Y-26417052D01*
X167728414Y-26417046D01*
X167654729Y-26367812D01*
X167654729Y-26367813D01*
X167605491Y-26334913D01*
X167468917Y-26278343D01*
X167468907Y-26278340D01*
X167323920Y-26249500D01*
X167323918Y-26249500D01*
X133176082Y-26249500D01*
X133176080Y-26249500D01*
X133031092Y-26278340D01*
X133031082Y-26278343D01*
X132894511Y-26334912D01*
X132894498Y-26334919D01*
X132771584Y-26417048D01*
X132771580Y-26417051D01*
X124667050Y-34521580D01*
X124667044Y-34521588D01*
X124617812Y-34595268D01*
X124617813Y-34595269D01*
X124584921Y-34644496D01*
X124584914Y-34644508D01*
X124528342Y-34781086D01*
X124528340Y-34781092D01*
X124499500Y-34926079D01*
X124499500Y-34926082D01*
X124499500Y-43953918D01*
X124499500Y-43953920D01*
X124499499Y-43953920D01*
X85750500Y-43953920D01*
X85750500Y-24874500D01*
X85770185Y-24807461D01*
X85822989Y-24761706D01*
X85874500Y-24750500D01*
X199875500Y-24750500D01*
X199942539Y-24770185D01*
G37*
%TD.AperFunction*%
%TD*%
M02*
